<?xml version="1.0" encoding="utf-8"?><svg width="216" height="194" viewBox="0 0 216 194" xmlns="http://www.w3.org/2000/svg" xmlns:xlink="http://www.w3.org/1999/xlink"><view id="american-express" viewBox="80 0 50 32"/><svg viewBox="0 0 50 32" width="50" height="32" x="80" xmlns="http://www.w3.org/2000/svg"><defs><style>.acls-1{fill:#0a78a9;fill-rule:evenodd}.acls-2{fill:#fff}</style></defs><g id="aСлой_2" data-name="Слой 2"><g id="aСлой_1-2" data-name="Слой 1"><path class="acls-1" d="M0 0h50v32H0z"/><path class="acls-2" d="M9.5 12.48l-.73-1.77-.72 1.77m17.48-.71a1 1 0 0 1-.53.09h-1.29v-1H25a1.09 1.09 0 0 1 .5.08.41.41 0 0 1 .22.39.45.45 0 0 1-.19.44zm9.21.71L34 10.71l-.73 1.77zM17.57 14.4h-1.09v-3.48l-1.55 3.48H14l-1.55-3.49v3.49h-2.16l-.41-1H7.67l-.41 1H6.11L8 10h1.59l1.81 4.21V10h1.73l1.39 3 1.28-3h1.77v4.4zm4.34 0h-3.55V10h3.55v.93h-2.49v.8h2.43v.91h-2.43v.89h2.49zm5-3.25a1.25 1.25 0 0 1-.75 1.19 1.23 1.23 0 0 1 .53.37 1.28 1.28 0 0 1 .18.82v.87H25.8v-.56a1.33 1.33 0 0 0-.17-.87 1 1 0 0 0-.77-.19h-1.15v1.62h-1.06V10h2.44a2.5 2.5 0 0 1 1.29.21 1 1 0 0 1 .54.94zm1.7 3.25h-1.08V10h1.08zm12.58 0h-1.5l-2-3.34v3.34h-2.18l-.41-1h-2.21l-.4 1h-1.24a2.23 2.23 0 0 1-1.54-.49 2.24 2.24 0 0 1-.57-1.7 2.37 2.37 0 0 1 .57-1.74 2.16 2.16 0 0 1 1.62-.47h1v1h-1a1 1 0 0 0-.82.26 1.47 1.47 0 0 0-.31 1 1.54 1.54 0 0 0 .29 1 1 1 0 0 0 .74.23h.48l1.5-3.5h1.59l1.8 4.21V10h1.62l1.89 3v-3h1.09v4.4zm-35.1.87h1.82l.41-1h.92l.41 1h3.57v-.76l.32.76h1.85l.32-.77v.77h8.88v-1.62h.17c.12 0 .16 0 .16.21v1.41h4.58v-.38a3.64 3.64 0 0 0 1.7.38h1.93l.41-1h.92l.4 1h3.74v-.94l.56.94h3v-6.2h-3v.73l-.41-.73h-3v.73l-.38-.73h-4.09a3.68 3.68 0 0 0-1.77.36v-.36h-2.83v.36a1.75 1.75 0 0 0-1.2-.36H15.16l-.69 1.6-.71-1.6h-3.25v.73l-.36-.73H7.38L6.09 12v3.25zm37.82 3.28H42a.74.74 0 0 0-.43.08.35.35 0 0 0-.16.32.34.34 0 0 0 .23.33 1.21 1.21 0 0 0 .41.05h.58a1.68 1.68 0 0 1 1.21.36.57.57 0 0 1 .1.11m0 1.67a1.66 1.66 0 0 1-1.44.57h-2.09v-1h2a.6.6 0 0 0 .43-.11.39.39 0 0 0 .16-.23.37.37 0 0 0-.13-.29.54.54 0 0 0-.37-.1c-1 0-2.24 0-2.24-1.38 0-.65.41-1.32 1.52-1.32h2.12v-.88h-2a2.22 2.22 0 0 0-1.33.36v-.36H37.7a2 2 0 0 0-1.27.36v-.36h-5.2v.36a2.76 2.76 0 0 0-1.43-.36h-3.43v.36a2.42 2.42 0 0 0-1.5-.36H21l-.88.95-.82-.95h-5.69v6.21h5.62l.9-1 .85 1h3.46v-1.47h.34a3.61 3.61 0 0 0 1.48-.22v1.67h2.86v-1.61h.14c.18 0 .19 0 .19.18v1.43h8.68a2.48 2.48 0 0 0 1.45-.4v.4h2.75a3.69 3.69 0 0 0 1.56-.29v-1.15zm-4.24-1.78a1.24 1.24 0 0 1 .32.94c0 1-.6 1.4-1.67 1.4h-2.1v-1h2.06a.62.62 0 0 0 .43-.11.39.39 0 0 0 .13-.29.38.38 0 0 0-.13-.29.56.56 0 0 0-.38-.1c-1 0-2.24 0-2.24-1.38 0-.65.41-1.32 1.52-1.32h2.13v.95h-1.95a.72.72 0 0 0-.43.08.37.37 0 0 0 .07.65 1.22 1.22 0 0 0 .41.05h.57a1.71 1.71 0 0 1 1.23.44zm-9.59-.27a1 1 0 0 1-.52.09h-1.33v-1h1.31a1 1 0 0 1 .51.08.42.42 0 0 1 .22.4.48.48 0 0 1-.22.44zm.64.55a1.16 1.16 0 0 1 .52.37 1.29 1.29 0 0 1 .18.81v.88h-1.1v-.53c0-.27 0-.66-.17-.87a1 1 0 0 0-.78-.2h-1.14v1.62h-1.07v-4.44h2.45a2.63 2.63 0 0 1 1.28.21 1 1 0 0 1 .55 1 1.25 1.25 0 0 1-.75 1.18zm1.34-2.38h3.55v.92h-2.52v.81h2.43v.91h-2.43v.88h2.49v.92h-3.55zm-7.17 2.05h-1.4v-1.11h1.38c.38 0 .65.16.65.55s-.25.58-.66.58zm-2.43 2l-1.63-1.81 1.63-1.75zm-4.21-.52h-2.65v-.88H18v-.91h-2.37v-.81h2.67l1.16 1.3zm8.45-2.06c0 1.24-.92 1.49-1.85 1.49h-1.36v1.49h-2.07l-1.31-1.47-1.36 1.47h-4.21v-4.43h4.27l1.31 1.46 1.35-1.46h3.4c.85 0 1.79.23 1.79 1.46z"/></g></g></svg><view id="aws" viewBox="180 42.86 30 30"/><svg width="30" height="30" viewBox="0 0 30 30" x="180" y="42.86" xmlns="http://www.w3.org/2000/svg"><defs><style>.bcls-1{fill:#acb5bc;fill-rule:evenodd}</style></defs><path id="babsolute_sign" data-name="absolute sign" class="bcls-1" d="M1637.07 5290.77a5 5 0 0 0-.37-.73 1.938 1.938 0 0 1 .37.73zm-1.95-1.57c.21.06.42.11.58.17-.21-.06-.37-.11-.58-.17zm11.53 4.82a20.447 20.447 0 0 1-1.1 3.85 9.8 9.8 0 0 1-1.58 2.66 6.745 6.745 0 0 1-5.31 2.43l-.01.06h-.48a5.115 5.115 0 0 1-1-.06c-.15 0-.21-.05-.31-.05a.609.609 0 0 1-.37-.16 1.777 1.777 0 0 1-.11-.71c0-.27.06-.7.11-1.14 0-.1.05-.27.05-.37v-.17l.01-.22c-.03.13-.06.22-.06.22a10.076 10.076 0 0 1-1.05.98 13.144 13.144 0 0 1-1.48.81 11.433 11.433 0 0 1-2.05.65 10.6 10.6 0 0 1-2.27.22 8.393 8.393 0 0 1-2.47-.33 4.8 4.8 0 0 1-1.85-.92 3.434 3.434 0 0 1-1.1-1.62 4.424 4.424 0 0 1-.11-2.22 7.366 7.366 0 0 1 .79-2.23 5.645 5.645 0 0 1 1.48-1.73 6.956 6.956 0 0 1 2.37-1.19 11.064 11.064 0 0 1 3.1-.38h5.11a.433.433 0 0 1 .05.01l.01-.01h.1a3.752 3.752 0 0 0 0-1.57 1.864 1.864 0 0 0-.63-1.03 3.185 3.185 0 0 0-.74-.43c-.21-.06-.37-.11-.58-.17a7.169 7.169 0 0 0-2-.21h-3.37a10.456 10.456 0 0 1-1.48-.11.962.962 0 0 1-.68-.27 1.425 1.425 0 0 1-.11-.76v-.06a14.134 14.134 0 0 1 .22-1.68h5.79a12.593 12.593 0 0 1 3.79.49 3.93 3.93 0 0 1 3.06 3.58 11.233 11.233 0 0 1-.16 3.14l-.74 4.77-.33 1.95a10.126 10.126 0 0 0 1.17-.11 2.009 2.009 0 0 0 1.27-.54 4.555 4.555 0 0 0 .74-1.74c.26-.86.52-2.11.84-3.68a16.818 16.818 0 0 0 .31-4.44 7.936 7.936 0 0 0-1-3.2 6.433 6.433 0 0 0-3.1-2.38 16.752 16.752 0 0 0-5.01-.92c-1.95 0-3.53 0-4.79.05a13.987 13.987 0 0 0-2.85.33 5.116 5.116 0 0 0-2.1 1.08 5.65 5.65 0 0 0-1.48 2 16.331 16.331 0 0 0-.95 3.04c-.31 1.35-.68 3.09-1.1 5.14a17.265 17.265 0 0 0-.37 5.04 6.538 6.538 0 0 0 4.69 6.07 18.407 18.407 0 0 0 6 .98l1.79.05 1.79.05a11.227 11.227 0 0 1 1.58.11 1.67 1.67 0 0 1 .69.33 1.232 1.232 0 0 1 .1.86 10.046 10.046 0 0 1-.26 1.85l-3.16-.06-3.16-.05a24 24 0 0 1-7.8-1.25 8.836 8.836 0 0 1-4.52-3.41 9.407 9.407 0 0 1-1.43-4.44 24.077 24.077 0 0 1 .42-6.23c.95-4.93 2.9-8.67 5.8-11.06 2.9-2.43 6.74-3.63 11.53-3.52s8.22 1.36 10.17 3.69 2.47 5.79 1.68 10.34zm-12.43 1.03h-2.31c-.95 0-1.69.06-2.27.11a2.659 2.659 0 0 0-1.1.27 2.159 2.159 0 0 0-.48.82 8.5 8.5 0 0 0-.42 1.68 1.844 1.844 0 0 0 .63 1.84 4.656 4.656 0 0 0 2.64.59 19.065 19.065 0 0 0 2.84-.16 2.824 2.824 0 0 0 1.42-.43 2.337 2.337 0 0 0 .69-1.3 24.381 24.381 0 0 0 .63-2.77v-.38l.05-.27h-2.32z" transform="translate(-1617 -5280)"/></svg><view id="cart" viewBox="180 72.86 22 23"/><svg width="22" height="23" viewBox="0 0 22 23" x="180" y="72.86" xmlns="http://www.w3.org/2000/svg"><defs><style>.ccls-1{fill:#687179;fill-rule:evenodd}</style></defs><path id="ccart" class="ccls-1" d="M858 5910h-16a3 3 0 0 1-3-3l1-14a1 1 0 0 1 1-1h4a5 5 0 0 1 10 0h4a1 1 0 0 1 1 1l1 14a3 3 0 0 1-3 3zm-8-21a3 3 0 0 0-3 3h6a3 3 0 0 0-3-3zm8 5h-3v2a1 1 0 0 1-2 0v-2h-6v2a1 1 0 0 1-2 0v-2h-3l-1 12a2 2 0 0 0 2 2h14a2 2 0 0 0 2-2z" transform="translate(-839 -5887)"/></svg><view id="discover" viewBox="80 32 50 32"/><svg viewBox="0 0 50 32" width="50" height="32" x="80" y="32" xmlns="http://www.w3.org/2000/svg"><defs><style>.dcls-1{fill:#f2f2f2;fill-rule:evenodd}.dcls-2{fill:#ef7d00}.dcls-3{fill:url(#dradial-gradient)}.dcls-4{fill:#05171d}.dcls-5{fill:#1d1d1b}</style><radialGradient id="dradial-gradient" cx="19.19" cy="-470.08" r="2.46" gradientTransform="translate(6.42 486.08)" gradientUnits="userSpaceOnUse"><stop offset=".01" stop-color="#fff2e8"/><stop offset=".1" stop-color="#feeddf"/><stop offset=".24" stop-color="#fde1c7"/><stop offset=".43" stop-color="#facd9f"/><stop offset=".65" stop-color="#f6b168"/><stop offset=".89" stop-color="#f08e22"/><stop offset="1" stop-color="#ee7d00"/></radialGradient></defs><g id="dСлой_2" data-name="Слой 2"><g id="dСлой_1-2" data-name="Слой 1"><path class="dcls-1" d="M0 0h50v32H0z"/><path class="dcls-2" d="M50 20.35S38.6 28.4 17.72 32H50z"/><path class="dcls-3" d="M25.61 13.57A2.45 2.45 0 0 0 23.12 16a2.49 2.49 0 1 0 2.49-2.4z"/><path class="dcls-4" d="M11.48 13.66h-1.34v4.67h1.33a2.43 2.43 0 0 0 1.67-.54A2.35 2.35 0 0 0 14 16a2.32 2.32 0 0 0-2.52-2.34zm1.06 3.51a1.72 1.72 0 0 1-1.25.37h-.24v-3.09h.24a1.69 1.69 0 0 1 1.25.38A1.57 1.57 0 0 1 13 16a1.6 1.6 0 0 1-.46 1.16zm1.86-3.51h.91v4.67h-.91zm3.14 1.79c-.55-.2-.71-.34-.71-.59s.29-.52.68-.52a1 1 0 0 1 .74.38l.48-.62a2 2 0 0 0-1.37-.52 1.37 1.37 0 0 0-1.46 1.34c0 .64.29 1 1.15 1.28a3.51 3.51 0 0 1 .63.27.56.56 0 0 1 .27.48.67.67 0 0 1-.71.66 1.08 1.08 0 0 1-1-.62l-.59.57a1.82 1.82 0 0 0 1.62.89 1.51 1.51 0 0 0 1.61-1.53c0-.76-.3-1.09-1.34-1.47zm1.63.55a2.42 2.42 0 0 0 2.46 2.44 2.51 2.51 0 0 0 1.14-.27v-1.08a1.46 1.46 0 0 1-1.1.51 1.53 1.53 0 0 1-1.56-1.6 1.55 1.55 0 0 1 1.53-1.6 1.52 1.52 0 0 1 1.14.52v-1.08a2.33 2.33 0 0 0-1.12-.29A2.45 2.45 0 0 0 19.17 16zm10.98.8l-1.24-3.14h-1l1.98 4.79h.49l2.02-4.79h-.99l-1.26 3.14zm2.66 1.53h2.59v-.79h-1.68v-1.26h1.61v-.79h-1.61v-1.04h1.68v-.79h-2.59v4.67zM39 15c0-.87-.6-1.38-1.65-1.38H36v4.67h.91v-1.84H37l1.26 1.88h1.12l-1.47-2A1.24 1.24 0 0 0 39 15zm-1.83.77h-.26v-1.38h.28c.57 0 .88.24.88.69s-.32.73-.9.73z"/><path class="dcls-5" d="M39.64 14c0-.08-.05-.13-.15-.13h-.13v.41h.1v-.16l.12.16h.12l-.14-.17a.11.11 0 0 0 .08-.11zm-.17.06V14s.07 0 .07.05-.02.01-.07.01z"/><path class="dcls-5" d="M39.51 13.73a.36.36 0 1 0 .35.36.36.36 0 0 0-.35-.36zm0 .65a.29.29 0 1 1 .28-.29.29.29 0 0 1-.28.29z"/></g></g></svg><view id="gift" viewBox="198 130.86 17 12"/><svg viewBox="0 0 17 12" width="17" height="12" x="198" y="130.86" xmlns="http://www.w3.org/2000/svg"><defs><style>.ecls-1{fill-rule:evenodd;fill:url(#eБезымянный_градиент_7)}.ecls-2{fill:#6a737b}</style><linearGradient id="eБезымянный_градиент_7" x1="2" y1="7" x2="17" y2="7" gradientUnits="userSpaceOnUse"><stop offset="0" stop-color="#add2ee"/><stop offset="1" stop-color="#fff"/></linearGradient></defs><g id="eСлой_2" data-name="Слой 2"><g id="eLayer_1" data-name="Layer 1"><path class="ecls-1" d="M7 12V7.15l1.16 1.63a.54.54 0 0 0 .73.14.48.48 0 0 0 .11-.7L8.21 7a1.67 1.67 0 0 0 1.89-1H17v6zm9-4h-4v1h4zm0 2h-4v1h4zM9.13 5.5a.6.6 0 0 1-.94.5l-.75-.5.75-.5a.6.6 0 0 1 .94.5zM7.61 4.19L7 4.57V2h10v3h-6.91a1.69 1.69 0 0 0-2.48-.81zM2 6h.88a1.67 1.67 0 0 0 1.89 1l-.83 1.22a.48.48 0 0 0 .15.69.55.55 0 0 0 .73-.14L6 7.15V12H2zm2.79-1l.75.47-.75.53a.6.6 0 0 1-.93-.48.6.6 0 0 1 .93-.52zM2.88 5H2V2h4v2.57l-.59-.37a1.69 1.69 0 0 0-2.53.8z"/><path class="ecls-2" d="M0 0v12h17V0zm5 11H1V5h.88a1.67 1.67 0 0 0 1.89 1l-.83 1.22a.48.48 0 0 0 .15.69.55.55 0 0 0 .73-.14L5 6.15zM2.85 4.5a.6.6 0 0 1 .94-.5l.75.47-.75.53a.6.6 0 0 1-.94-.5zM5 3.57l-.59-.37a1.69 1.69 0 0 0-2.53.8H1V1h4zM16 11H6V6.15l1.16 1.63a.55.55 0 0 0 .73.14.48.48 0 0 0 .11-.7L7.21 6a1.67 1.67 0 0 0 1.88-1H16zM6.44 4.5l.75-.5a.6.6 0 0 1 .93.48.6.6 0 0 1-.93.52zM16 4H9.09a1.69 1.69 0 0 0-2.49-.81l-.6.38V1h10zm-1 3h-4v1h4zm0 2h-4v1h4z"/></g></g></svg><view id="heart" viewBox="180 95.86 20 17"/><svg viewBox="0 0 20 17" width="20" height="17" x="180" y="95.86" xmlns="http://www.w3.org/2000/svg"><defs><style>.fcls-1{fill-rule:evenodd;fill:url(#fБезымянный_градиент_7)}.fcls-2{fill:#6a737b}</style><linearGradient id="fБезымянный_градиент_7" x1="1.76" y1="9.23" x2="19.71" y2="9.23" gradientUnits="userSpaceOnUse"><stop offset="0" stop-color="#acd1ed"/><stop offset="1" stop-color="#fff"/></linearGradient></defs><g id="fСлой_2" data-name="Слой 2"><g id="fLayer_1" data-name="Layer 1"><path class="fcls-1" d="M18.36 9.51l-6.89 6.89a1 1 0 0 1-1.45 0L3.08 9.47a4.52 4.52 0 0 1 6.4-6.39l.54.54-.83.83a.51.51 0 1 0 .73.73L12 3.08a4.52 4.52 0 0 1 6.43 0 4.57 4.57 0 0 1-.07 6.43zm-.5-5.89a3.75 3.75 0 0 0-1.64-1 .51.51 0 0 0-.28 1 2.72 2.72 0 0 1 2 2.45.51.51 0 0 0 .51.48.51.51 0 0 0 .5-.55 3.74 3.74 0 0 0-1.09-2.38z"/><path class="fcls-2" d="M18.44 1.67a5.55 5.55 0 0 0-7.89 0l-.55.5-.54-.54a5.55 5.55 0 1 0-7.84 7.84l6.94 6.93a2.06 2.06 0 0 0 2.9 0l6.89-6.89a5.6 5.6 0 0 0 .09-7.84zm-.82 7.12l-6.89 6.89a1 1 0 0 1-1.45 0L2.35 8.74a4.52 4.52 0 0 1 6.39-6.39l.54.54-.83.83a.51.51 0 0 0 .73.73l2.1-2.1a4.52 4.52 0 0 1 6.43 0 4.57 4.57 0 0 1-.09 6.44zm-.5-5.89a3.75 3.75 0 0 0-1.64-1 .51.51 0 1 0-.28 1 2.72 2.72 0 0 1 2 2.45.51.51 0 0 0 .51.48.51.51 0 0 0 .48-.54 3.74 3.74 0 0 0-1.06-2.39z"/></g></g></svg><view id="mastercard" viewBox="130 45 50 32"/><svg viewBox="0 0 50 32" width="50" height="32" x="130" y="45" xmlns="http://www.w3.org/2000/svg"><defs><style>.gcls-1{fill:#14477c;fill-rule:evenodd}.gcls-2{fill:#f9b31e}.gcls-3{fill:#e30520}.gcls-4{fill:#fff}.gcls-5{fill:none}</style></defs><g id="gСлой_2" data-name="Слой 2"><g id="gСлой_1-2" data-name="Слой 1"><path class="gcls-1" d="M0 0h50v32H0z"/><path class="gcls-2" d="M30.49 24.2l.42-.01.42-.03.41-.05.4-.07.4-.1.39-.11.38-.13.37-.14.37-.17.35-.18.35-.2.33-.21.32-.23.31-.25.3-.25.29-.28.27-.28.26-.3.24-.31.23-.32.21-.33.2-.35.18-.35.17-.37.14-.37.13-.38.12-.39.09-.4.07-.41.05-.4.03-.42.01-.43-.01-.42-.03-.41-.05-.41-.07-.4-.09-.4-.12-.38-.13-.39-.14-.37-.17-.36-.18-.35-.2-.34-.21-.34-.23-.32-.24-.31-.26-.3-.27-.28-.29-.27-.3-.26-.31-.24-.32-.23-.33-.21-.35-.2-.35-.18-.37-.17-.37-.14-.38-.13-.39-.11-.4-.1-.4-.07-.41-.05-.42-.03-.42-.01-.42.01-.42.03-.41.05-.41.07-.39.1-.39.11-.38.13-.37.14-.37.17-.35.18-.34.2-.33.21-.32.23-.31.24-.3.26-.28.27-.27.28-.26.3-.25.31-.22.32-.22.34-.19.34-.18.35-.17.36-.14.37-.13.39-.11.38-.09.4-.08.4-.05.41-.03.41-.01.42.01.43.03.42.05.4.08.41.09.4.11.39.13.38.14.37.17.37.18.35.19.35.22.33.22.32.25.31.26.3.27.28.28.28.3.25.31.25.32.23.33.21.34.2.35.18.37.17.37.14.38.13.39.11.39.1.41.07.41.05.42.03.42.01z"/><path class="gcls-3" d="M19.51 24.2l.42-.01.42-.03.41-.05.41-.07.39-.1.39-.11.38-.13.37-.14.37-.17.35-.18.34-.2.33-.21.32-.23.31-.25.3-.25.28-.28.27-.28.26-.3.25-.31.22-.32.22-.33.19-.35.18-.35.17-.37.14-.37.13-.38.11-.39.09-.4.08-.41.05-.4.03-.42.01-.43-.01-.42-.03-.41-.05-.41-.08-.4-.09-.4-.11-.38-.13-.39-.14-.37-.17-.36-.18-.35-.19-.34-.22-.34-.22-.32-.25-.31-.26-.3-.27-.28-.28-.27-.3-.26-.31-.24-.32-.23-.33-.21-.34-.2-.35-.18-.37-.17-.37-.14-.38-.13-.39-.11-.39-.1-.41-.07-.41-.05-.42-.03-.42-.01-.42.01-.42.03-.41.05-.4.07-.4.1-.39.11-.38.13-.37.14-.37.17-.35.18-.35.2-.33.21-.32.23-.31.24-.3.26-.28.27-.28.28-.26.3-.24.31-.23.32-.21.34-.2.34-.18.35-.17.36-.14.37-.13.39-.12.38-.09.4-.07.4-.05.41-.03.41-.01.42.01.43.03.42.05.4.07.41.09.4.12.39.13.38.14.37.17.37.18.35.2.35.21.33.23.32.24.31.26.3.28.28.28.28.3.25.31.25.32.23.33.21.35.2.35.18.37.17.37.14.38.13.39.11.4.1.4.07.41.05.42.03.42.01z"/><path class="gcls-2" d="M24.04 10.94h4.36v-.44h-3.98l-.38.44zm-.65 1h5.01v-.45h-4.75l-.26.45zm-.49.98h5.5v-.44h-5.31l-.19.44zm-.33.99h5.83v-.44h-5.7l-.13.44zm.19 4.79h5.65v-.45h-5.79l.14.45zm.42.99h5.23v-.45h-5.44l.21.45zm.58.99h4.65v-.45h-4.93l.28.45zm.81.99h3.84v-.45h-4.23l.39.45zm-2.2-6.77h6.03v-.44h-5.95l-.08.44zm3.67 2.81h2.3v-.44h-2.21l-.09.44zm.19-.99h2.11v-.45h-2.03l-.08.45zm-4.01-.45h.6v.45h-.57l-.03-.45z"/><path class="gcls-4" d="M21.1 15.74l-.04-.01h-.04l-.03-.01h-.04l-.03-.01h-.04l-.03-.01-.04-.01h-.08l-.05-.01h-.18l-.07.01h-.08l-.06.01-.05.01-.04.02-.05.01-.04.02-.03.03-.03.02-.02.03-.02.03-.01.03-.01.03v.03L20 16l.01.04.02.03.03.04.05.05.07.04.08.04.08.03.09.03.09.03.09.03.09.04.08.04.08.06.07.07.06.09.04.1.03.13.01.15-.01.17-.02.13-.03.11-.05.11-.05.09-.07.08-.07.07-.07.06-.09.05-.09.04-.09.04-.09.03-.1.02-.1.02-.09.01h-.67l-.08-.01-.07-.01h-.06l-.06-.01-.05-.01-.05-.01-.05-.01-.05-.01-.04-.02-.05-.02-.04-.01.12-.61h.03l.03.01.04.01.04.01.05.01.06.01.06.02.07.01.07.01.07.01.07.01.08.01h.32l.08-.02.06-.02.05-.03.04-.04.03-.04.02-.04.02-.05.01-.04v-.08l-.02-.07-.05-.05-.07-.05-.08-.04-.1-.04-.11-.04-.1-.04-.11-.06-.11-.05-.1-.07-.08-.09-.07-.11-.05-.12-.03-.15v-.18l.02-.1.02-.11.02-.09.04-.09.04-.08.05-.07.06-.07.07-.06.08-.06.09-.04.1-.04.11-.03.12-.03.14-.02.15-.01h.44l.08.01h.07l.06.01h.06l.05.01h.05l.03.01.04.01h.03l.03.01h.03l.02.01h.02l-.14.63z"/><path class="gcls-5" d="M21.1 15.74l-.04-.01h-.04l-.03-.01h-.04l-.03-.01h-.04l-.03-.01-.04-.01h-.08l-.05-.01h-.18l-.07.01h-.08l-.06.01-.05.01-.04.02-.05.01-.04.02-.03.03-.03.02-.02.03-.02.03-.01.03-.01.03v.03L20 16l.01.04.02.03.03.04.05.05.07.04.08.04.08.03.09.03.09.03.09.03.09.04.08.04.08.06.07.07.06.09.04.1.03.13.01.15-.01.17-.02.13-.03.11-.05.11-.05.09-.07.08-.07.07-.07.06-.09.05-.09.04-.09.04-.09.03-.1.02-.1.02-.09.01h-.67l-.08-.01-.07-.01h-.06l-.06-.01-.05-.01-.05-.01-.05-.01-.05-.01-.04-.02-.05-.02-.04-.01.12-.61h.03l.03.01.04.01.04.01.05.01.06.01.06.02.07.01.07.01.07.01.07.01.08.01h.32l.08-.02.06-.02.05-.03.04-.04.03-.04.02-.04.02-.05.01-.04v-.08l-.02-.07-.05-.05-.07-.05-.08-.04-.1-.04-.11-.04-.1-.04-.11-.06-.11-.05-.1-.07-.08-.09-.07-.11-.05-.12-.03-.15v-.18l.02-.1.02-.11.02-.09.04-.09.04-.08.05-.07.06-.07.07-.06.08-.06.09-.04.1-.04.11-.03.12-.03.14-.02.15-.01h.44l.08.01h.07l.06.01h.06l.05.01h.05l.03.01.04.01h.03l.03.01h.03l.02.01h.02l-.14.63"/><path class="gcls-4" d="M21.76 14.43h.76l-.11.67h.46l-.1.62-.48-.01-.27 1.54v.06l.01.04.03.04.03.03.05.02.06.02.06.01h.13l.05-.01h.05l.05-.01.03-.02h.03l.01-.01h.01l-.1.51-.02.02-.02.01-.01.01-.02.01-.02.01-.02.01h-.03l-.02.01-.03.01-.03.01h-.03l-.04.01h-.03l-.04.01h-.05l-.04.01h-.21l-.12-.01-.09-.01-.09-.02-.08-.02-.06-.02-.05-.03-.05-.03-.03-.04-.03-.04-.02-.04-.02-.05v-.05l-.01-.06v-.06l.01-.06.01-.07.53-3.02z"/><path class="gcls-5" d="M21.76 14.43h.76l-.11.67h.46l-.1.62-.48-.01-.27 1.54v.06l.01.04.03.04.03.03.05.02.06.02.06.01h.13l.05-.01h.05l.05-.01.03-.02h.03l.01-.01h.01l-.1.51-.02.02-.02.01-.01.01-.02.01-.02.01-.02.01h-.03l-.02.01-.03.01-.03.01h-.03l-.04.01h-.03l-.04.01h-.05l-.04.01h-.21l-.12-.01-.09-.01-.09-.02-.08-.02-.06-.02-.05-.03-.05-.03-.03-.04-.03-.04-.02-.04-.02-.05v-.05l-.01-.06v-.06l.01-.06.01-.07.53-3.02"/><path class="gcls-4" d="M23.48 16.77v.04l-.01.05.01.05.01.06.02.05.02.05.03.05.03.05.04.05.05.04.04.04.05.03.05.03.05.03.06.02.05.01.08.01.07.01.07.01h.36l.08-.02.07-.01.08-.02.07-.02.08-.03.08-.03.08-.05.08-.05-.11.69-.05.02-.04.02-.04.02-.05.01-.04.02-.04.01-.04.01-.05.01-.05.01h-.06l-.06.01h-.06l-.07.01h-.39l-.14-.02-.14-.02-.13-.03-.14-.04-.13-.05-.12-.07-.12-.08-.11-.1-.09-.11-.08-.13-.07-.14-.05-.17-.03-.18v-.21l.01-.22.01-.09.02-.1.02-.11.03-.12.04-.12.05-.12.07-.12.07-.11.09-.12.11-.1.12-.09.14-.09.16-.07.18-.05.2-.03.22-.01h.11l.11.01.12.02.11.03.11.04.11.05.1.07.09.08.08.09.07.11.06.13.04.14.02.17v.19l-.02.21-.04.23-.01.17h-2.02l.13-.55h1.21v-.19l-.01-.06-.02-.05-.02-.05-.03-.04-.03-.04-.03-.03-.04-.03-.04-.02-.04-.03-.04-.01-.05-.01-.05-.01-.05-.01-.05.01h-.05l-.05.02-.04.01-.05.02-.04.03-.04.03-.04.03-.04.04-.03.04-.03.05-.02.04-.03.05-.02.06-.01.05-.02.06-.11.58z"/><path class="gcls-5" d="M23.48 16.77v.04l-.01.05.01.05.01.06.02.05.02.05.03.05.03.05.04.05.05.04.04.04.05.03.05.03.05.03.06.02.05.01.08.01.07.01.07.01h.36l.08-.02.07-.01.08-.02.07-.02.08-.03.08-.03.08-.05.08-.05-.11.69-.05.02-.04.02-.04.02-.05.01-.04.02-.04.01-.04.01-.05.01-.05.01h-.06l-.06.01h-.06l-.07.01h-.39l-.14-.02-.14-.02-.13-.03-.14-.04-.13-.05-.12-.07-.12-.08-.11-.1-.09-.11-.08-.13-.07-.14-.05-.17-.03-.18v-.21l.01-.22.01-.09.02-.1.02-.11.03-.12.04-.12.05-.12.07-.12.07-.11.09-.12.11-.1.12-.09.14-.09.16-.07.18-.05.2-.03.22-.01h.11l.11.01.12.02.11.03.11.04.11.05.1.07.09.08.08.09.07.11.06.13.04.14.02.17v.19l-.02.21-.04.23-.01.17h-2.02l.13-.55h1.21v-.19l-.01-.06-.02-.05-.02-.05-.03-.04-.03-.04-.03-.03-.04-.03-.04-.02-.04-.03-.04-.01-.05-.01-.05-.01-.05-.01-.05.01h-.05l-.05.02-.04.01-.05.02-.04.03-.04.03-.04.03-.04.04-.03.04-.03.05-.02.04-.03.05-.02.06-.01.05-.02.06-.11.58"/><path class="gcls-4" d="M30.08 15.26l-.03-.02-.04-.01-.04-.02-.04-.02-.04-.02-.05-.02-.05-.01-.05-.02-.05-.01-.05-.01-.06-.01-.06-.01-.06-.01h-.34l-.08.01-.07.01-.08.03-.08.03-.08.04-.07.04-.08.07-.07.07-.07.09-.06.1-.07.12-.05.14-.06.15-.04.18-.02.1-.01.1v.19l.01.09.02.09.02.08.03.09.04.07.05.07.06.07.07.06.07.04.09.05.09.03.11.03.03.01h.04l.05.01.06.01h.26l.07-.01.08-.02.07-.02.07-.02.06-.03.07-.04.06-.04.05-.05-.12.74-.02.01-.02.02-.02.02-.02.02-.03.02-.04.02-.05.02-.05.01-.06.02-.07.02-.09.01-.09.01h-.11l-.13.01-.14-.01h-.15l-.13-.02-.12-.03-.13-.04-.13-.05-.12-.07-.12-.08-.11-.1-.1-.11-.09-.12-.08-.14-.07-.16-.05-.17-.03-.18-.01-.2.01-.21.03-.23.02-.12.02-.11.03-.11.03-.1.03-.09.03-.1.04-.09.04-.09.04-.08.04-.08.05-.08.05-.07.05-.07.05-.07.06-.06.06-.06.06-.05.07-.06.06-.04.07-.05.07-.04.08-.04.08-.03.08-.03.08-.03.09-.02.09-.02.09-.01.1-.02.09-.01h.11l.1-.01.09.01h.08l.09.01.08.01.08.01.07.02.07.01.07.02.06.01.06.02.05.02.05.02.03.01.04.01.02.01.02.01-.14.76z"/><path class="gcls-5" d="M30.08 15.26l-.03-.02-.04-.01-.04-.02-.04-.02-.04-.02-.05-.02-.05-.01-.05-.02-.05-.01-.05-.01-.06-.01-.06-.01-.06-.01h-.34l-.08.01-.07.01-.08.03-.08.03-.08.04-.07.04-.08.07-.07.07-.07.09-.06.1-.07.12-.05.14-.06.15-.04.18-.02.1-.01.1v.19l.01.09.02.09.02.08.03.09.04.07.05.07.06.07.07.06.07.04.09.05.09.03.11.03.03.01h.04l.05.01.06.01h.26l.07-.01.08-.02.07-.02.07-.02.06-.03.07-.04.06-.04.05-.05-.12.74-.02.01-.02.02-.02.02-.02.02-.03.02-.04.02-.05.02-.05.01-.06.02-.07.02-.09.01-.09.01h-.11l-.13.01-.14-.01h-.15l-.13-.02-.12-.03-.13-.04-.13-.05-.12-.07-.12-.08-.11-.1-.1-.11-.09-.12-.08-.14-.07-.16-.05-.17-.03-.18-.01-.2.01-.21.03-.23.02-.12.02-.11.03-.11.03-.1.03-.09.03-.1.04-.09.04-.09.04-.08.04-.08.05-.08.05-.07.05-.07.05-.07.06-.06.06-.06.06-.05.07-.06.06-.04.07-.05.07-.04.08-.04.08-.03.08-.03.08-.03.09-.02.09-.02.09-.01.1-.02.09-.01h.11l.1-.01.09.01h.08l.09.01.08.01.08.01.07.02.07.01.07.02.06.01.06.02.05.02.05.02.03.01.04.01.02.01.02.01-.14.76"/><path class="gcls-4" d="M36.89 18.06h-.76l.05-.31v-.02l-.04.05-.05.05-.05.04-.05.04-.05.04-.05.03-.05.02-.05.03-.05.02-.05.01-.06.02-.05.01h-.06l-.05.01h-.11l-.14-.01-.14-.03-.12-.05-.11-.06-.1-.08-.09-.1-.07-.1-.07-.11-.06-.13-.04-.13-.03-.13-.02-.15-.01-.14v-.14l.02-.14.02-.14.04-.16.05-.16.06-.14.07-.13.07-.13.08-.11.09-.1.09-.09.1-.08.1-.07.11-.06.1-.05.11-.04.11-.02.11-.02h.2l.07.01.07.01.07.02.06.02.06.03.06.03.05.03.04.03.04.04.04.03.03.04.03.04.02.03.02.03.02.04.2-1.09h.75l-.63 3.62z"/><path class="gcls-5" d="M36.89 18.06h-.76l.05-.31v-.02l-.04.05-.05.05-.05.04-.05.04-.05.04-.05.03-.05.02-.05.03-.05.02-.05.01-.06.02-.05.01h-.06l-.05.01h-.11l-.14-.01-.14-.03-.12-.05-.11-.06-.1-.08-.09-.1-.07-.1-.07-.11-.06-.13-.04-.13-.03-.13-.02-.15-.01-.14v-.14l.02-.14.02-.14.04-.16.05-.16.06-.14.07-.13.07-.13.08-.11.09-.1.09-.09.1-.08.1-.07.11-.06.1-.05.11-.04.11-.02.11-.02h.2l.07.01.07.01.07.02.06.02.06.03.06.03.05.03.04.03.04.04.04.03.03.04.03.04.02.03.02.03.02.04.2-1.09h.75l-.63 3.62"/><path class="gcls-2" d="M35.64 17.39h.08l.07-.02.06-.02.07-.03.06-.03.05-.05.06-.04.04-.05.04-.06.04-.06.04-.06.03-.07.03-.07.02-.07.02-.08.01-.07.02-.08v-.23l-.01-.07-.01-.07-.02-.07-.02-.06-.03-.06-.03-.05-.04-.04-.04-.04-.05-.04-.04-.02-.06-.01-.06-.01-.07.01-.07.01-.06.02-.07.03-.05.04-.06.04-.04.05-.05.05-.04.06-.04.06-.04.07-.03.07-.03.08-.02.07-.02.08-.02.08-.01.12.01.14.01.13.04.13.06.12.07.09.09.06.11.02z"/><path class="gcls-4" d="M18.65 17.45l-.11.61h-.7l.02-.11.02-.11.01-.07.01-.04-.04.04-.04.04-.06.05-.06.03-.06.04-.07.04-.07.03-.08.03-.08.02-.08.02-.08.02-.08.01h-.08l-.08.01-.08-.01-.07-.01-.1-.03-.09-.02-.08-.04-.07-.04-.06-.05-.05-.05-.05-.05-.04-.06-.03-.05-.02-.06-.03-.07-.01-.05-.02-.07v-.06l-.01-.06v-.06l.01-.11.02-.11.02-.09.04-.1.04-.08.05-.08.06-.08.07-.07.07-.06.08-.06.07-.05.09-.05.09-.04.09-.03.09-.02.1-.02h.02l.02-.01h.06l.04-.01h.04l.05-.01h.04l.05-.01h.05l.05-.01h.08l.04-.01h.09l.07.01h.17l.04.01h.04v-.02l.02-.05.01-.06.01-.05-.01-.06-.03-.06-.03-.05-.04-.04-.06-.03-.05-.03-.07-.02h-.15l-.08-.01h-.09l-.09.01h-.09l-.09.01-.09.01-.08.01-.08.01-.09.01-.07.02-.06.01-.06.02-.05.01-.04.02-.03.02.19-.67.06-.02.06-.02.07-.02.07-.02.06-.01.08-.01.07-.01.07-.01h.08l.08-.01h.44l.1.01h.08l.08.02.09.02.09.02.08.03.09.04.08.05.08.05.07.06.06.07.05.07.04.09.03.09.02.09v.1l-.02.11-.28 1.47z"/><path class="gcls-5" d="M18.65 17.45l-.11.61h-.7l.02-.11.02-.11.01-.07.01-.04-.04.04-.04.04-.06.05-.06.03-.06.04-.07.04-.07.03-.08.03-.08.02-.08.02-.08.02-.08.01h-.08l-.08.01-.08-.01-.07-.01-.1-.03-.09-.02-.08-.04-.07-.04-.06-.05-.05-.05-.05-.05-.04-.06-.03-.05-.02-.06-.03-.07-.01-.05-.02-.07v-.06l-.01-.06v-.06l.01-.11.02-.11.02-.09.04-.1.04-.08.05-.08.06-.08.07-.07.07-.06.08-.06.07-.05.09-.05.09-.04.09-.03.09-.02.1-.02h.02l.02-.01h.06l.04-.01h.04l.05-.01h.04l.05-.01h.05l.05-.01h.08l.04-.01h.09l.07.01h.17l.04.01h.04v-.02l.02-.05.01-.06.01-.05-.01-.06-.03-.06-.03-.05-.04-.04-.06-.03-.05-.03-.07-.02h-.15l-.08-.01h-.09l-.09.01h-.09l-.09.01-.09.01-.08.01-.08.01-.09.01-.07.02-.06.01-.06.02-.05.01-.04.02-.03.02.19-.67.06-.02.06-.02.07-.02.07-.02.06-.01.08-.01.07-.01.07-.01h.08l.08-.01h.44l.1.01h.08l.08.02.09.02.09.02.08.03.09.04.08.05.08.05.07.06.06.07.05.07.04.09.03.09.02.09v.1l-.02.11-.28 1.47"/><path class="gcls-3" d="M17.98 16.72v-.01l-.01-.01-.02-.01-.02-.01h-.03l-.04-.01h-.08l-.05.01h-.04l-.05.01h-.04l-.04.01-.04.01h-.04l-.03.01-.02.01-.02.01-.03.01-.03.01-.03.02-.04.02-.04.02-.04.02-.03.03-.04.02-.03.04-.03.03-.03.04-.02.04-.02.04-.01.05v.09l.01.07.03.06.04.04.04.03.05.01.04.01.05.01.08-.01.07-.01.08-.01.06-.01.05-.02.06-.03.04-.02.04-.03.04-.03.03-.03.03-.03.02-.04.02-.03.02-.03.01-.03.01-.04.02-.07.02-.1.02-.08.01-.08z"/><path class="gcls-4" d="M12.83 18.06h-.75l.63-3.63h1.31l.12 2.15.9-2.15h1.37l-.64 3.63h-.75l.47-2.71h-.03l-1.12 2.71h-.85l-.01-.11-.02-.31-.02-.42-.03-.5-.03-.49-.02-.44-.02-.31-.01-.13h-.04l-.46 2.71z"/><path class="gcls-5" d="M12.83 18.06h-.75l.63-3.63h1.31l.12 2.15.9-2.15h1.37l-.64 3.63h-.75l.47-2.71h-.03l-1.12 2.71h-.85l-.01-.11-.02-.31-.02-.42-.03-.5-.03-.49-.02-.44-.02-.31-.01-.13h-.04l-.46 2.71"/><path class="gcls-4" d="M32.38 17.45l-.11.61h-.7l.01-.11v-.18l.01-.03-.04.04-.04.04-.05.04-.06.04-.05.03-.07.04-.07.03-.07.03-.07.02-.08.02-.08.02-.08.01h-.08l-.07.01-.08-.01-.07-.01-.1-.03-.09-.02-.08-.04-.07-.04-.06-.05-.05-.05-.05-.05-.04-.06-.03-.05-.03-.06-.02-.07-.01-.05-.01-.07-.01-.06-.01-.06v-.06l.01-.11.02-.11.02-.09.04-.1.04-.08.05-.08.06-.08.06-.07.08-.06.07-.06.08-.05.09-.05.08-.04.09-.03.09-.02.1-.02h.02l.02-.01h.06l.04-.01h.04l.04-.01h.05l.05-.01h.05l.05-.01h.08l.04-.01h.09l.07.01h.18l.04.01h.04v-.02l.01-.05.01-.06.01-.05-.02-.06-.02-.06-.03-.05-.04-.04-.05-.03-.06-.03-.06-.02h-.15l-.08-.01h-.09l-.08.01h-.1l-.08.01-.09.01-.09.01-.08.01-.08.01-.07.02-.07.01-.06.02-.05.01-.04.02-.03.02.19-.67.06-.02.07-.02.06-.02.07-.02.07-.01.07-.01.07-.01.07-.01h.08l.08-.01h.43l.1.01h.08l.08.02.08.02.09.02.09.03.08.04.09.05.08.05.07.06.06.07.05.07.04.09.04.09.02.09v.1l-.02.11-.29 1.47z"/><path class="gcls-4" d="M32.27 18.08l.01-.02.12-.61-.04-.01-.11.62.02-.02v.04h.01v-.02l-.01.02z"/><path class="gcls-4" d="M31.56 18.06l.01.02h.7v-.04h-.7l.02.02h-.03l-.01.02h.02l-.01-.02z"/><path class="gcls-4" d="M31.6 17.75l-.02-.02-.01.04-.01.08v.21h.03v-.11l.01-.1v-.1l-.03-.02.03.02z"/><path class="gcls-4" d="M30.52 18.1l.08.01.08.01h.07l.08-.01.08-.01.08-.01.08-.02.08-.02.07-.03.07-.04.06-.03.06-.04.06-.04.05-.03.05-.05.03-.04-.03-.02-.03.04-.04.04-.05.04-.05.04-.06.03-.07.03-.07.03-.06.03-.08.03-.07.02-.08.01-.08.01-.08.01h-.07l-.08-.01-.07-.01-.01.03z"/><path class="gcls-4" d="M29.86 17.27v.12l.01.06.01.07.02.06.02.06.02.07.04.05.04.06.04.05.06.06.06.04.07.05.08.03.1.03.09.02.01-.03-.1-.02-.09-.03-.07-.04-.07-.04-.06-.04-.05-.05-.04-.05-.04-.05-.03-.06-.03-.06-.02-.06-.01-.06-.01-.06-.01-.06-.01-.06v-.06h-.03zm.99-1.07l-.1.02-.09.03-.09.02-.09.04-.09.05-.08.05-.08.06-.07.07-.06.07-.06.07-.06.09-.04.09-.03.09-.03.1-.02.11v.11h.03l.01-.11.01-.1.03-.1.03-.09.05-.09.05-.07.05-.08.06-.07.08-.06.07-.06.08-.05.08-.04.09-.04.09-.03.09-.03.09-.01v-.04zM31.42 16.14h-.03l-.04.01h-.04l-.04.01h-.1l-.05.01-.05.01h-.04l-.04.01h-.04l-.04.01h-.06v.04l.02-.01h.04l.04-.01h.04l.04-.01h.04l.05-.01h.1l.05-.01h.04l.04-.01h.07v-.04zm.37.04l.02-.02h-.08l-.05-.01h-.13l-.07-.01h-.06v.04h.13l.06.01h.16l.03.01h.01l.01-.02-.01.02h.01v-.02h-.03z"/><path class="gcls-4" d="M31.82 16l-.01.05-.01.06v.05l-.01.02h.03l.01-.02.01-.05.01-.06.01-.05h-.04zm-.33-.28v.01h.06l.06.02.06.02.04.03.04.04.04.05.02.05.01.06h.03l-.01-.06-.02-.07-.04-.05-.04-.04-.06-.04-.06-.03-.06-.01-.07-.01v.03zm-1.19.14l.03.01.03-.01.03-.02.05-.02.06-.01.07-.02.07-.01.08-.01.08-.01.09-.02h.09l.08-.01.1-.01h.33v-.03h-.08l-.08-.01h-.09l-.08.01h-.1l-.08.01-.09.01-.09.01-.09.01-.07.02-.08.01-.06.02-.06.01-.06.02-.04.02-.03.02.03.01h-.04z"/><path class="gcls-4" d="M30.51 15.18l-.01.01-.2.67h.04l.19-.66-.01.01-.01-.03h-.01v.01l.01-.01z"/><path class="gcls-4" d="M31.74 15.05l-.1-.01h-.35l-.08.01h-.16l-.07.01-.08.01-.07.01-.06.02-.07.01-.07.02-.06.02-.06.03.01.03.06-.02.06-.03.06-.02.07-.01.07-.01.07-.01.07-.02h.07l.08-.01h.61v-.03z"/><path class="gcls-4" d="M32.69 15.99l.01-.12v-.1l-.02-.1-.03-.09-.04-.09-.06-.07-.06-.07-.07-.06-.08-.06-.09-.04-.09-.04-.08-.04-.09-.02-.09-.02-.08-.02h-.08v.03l.08.01.08.01.08.02.09.03.08.03.09.04.08.04.08.05.06.07.06.06.06.07.04.08.03.09.02.09v.1l-.01.11.03.01z"/><path class="gcls-4" d="M32.4 17.45l.29-1.46-.03-.01-.3 1.46.04.01z"/><path class="gcls-2" d="M31.71 16.72v-.01l-.01-.02-.02-.01h-.03l-.03-.01h-.12l-.05.01h-.04l-.05.01-.04.01h-.04l-.03.01-.04.01h-.03l-.02.01h-.02l-.03.01-.03.01-.03.02-.04.02-.03.02-.04.02-.04.03-.03.03-.03.03-.03.03-.03.04-.02.04-.01.05-.01.05-.01.09.02.07.02.06.03.04.04.03.05.01.05.01.05.01.08-.01.08-.01.07-.01.06-.02.06-.02.06-.03.05-.02.04-.04.04-.03.03-.03.03-.04.03-.03.02-.03.01-.04.01-.03.01-.03.01-.08.02-.08.01-.08v-.07z"/><path class="gcls-4" d="M32.59 18.06h.78l.28-1.57.01-.06.01-.07.02-.06.02-.06.03-.06.03-.06.04-.05.04-.05.06-.05.05-.05.06-.04.08-.03.08-.03.09-.02.09-.02h.18l.12-.71h-.07l-.08.01-.07.01-.06.02-.07.03-.05.02-.06.03-.05.04-.05.04-.05.03-.04.05-.05.04-.04.05-.04.05-.04.05-.04.06.08-.5h-.78l-.51 2.96z"/><path class="gcls-5" d="M32.59 18.06h.78l.28-1.57.01-.06.01-.07.02-.06.02-.06.03-.06.03-.06.04-.05.04-.05.06-.05.05-.05.06-.04.08-.03.08-.03.09-.02.09-.02h.18l.12-.71h-.07l-.08.01-.07.01-.06.02-.07.03-.05.02-.06.03-.05.04-.05.04-.05.03-.04.05-.05.04-.04.05-.04.05-.04.05-.04.06.08-.5h-.78l-.51 2.96"/><path class="gcls-4" d="M25.26 18.06h.8l.26-1.57.01-.06.02-.06.01-.06.02-.06.02-.05.03-.06.03-.05.04-.04.05-.04.05-.05.06-.03.06-.03.08-.02.09-.02.09-.02.11-.01h.01l.01.01h.05l.01.01v-.01l.01-.04.01-.05.02-.06.02-.07.02-.08.02-.08.03-.07.02-.05.03-.06.02-.05.03-.05.03-.04.02-.03.01-.02v-.01h-.01l-.01-.01h-.19l-.08.01-.07.01-.06.02-.07.02-.06.03-.05.03-.05.03-.04.04-.05.04-.04.04-.04.05-.04.04-.04.06-.04.05-.05.06.1-.5h-.79l-.52 2.96z"/><path class="gcls-5" d="M25.26 18.06h.8l.26-1.57.01-.06.02-.06.01-.06.02-.06.02-.05.03-.06.03-.05.04-.04.05-.04.05-.05.06-.03.06-.03.08-.02.09-.02.09-.02.11-.01h.01l.01.01h.05l.01.01v-.01l.01-.04.01-.05.02-.06.02-.07.02-.08.02-.08.03-.07.02-.05.03-.06.02-.05.03-.05.03-.04.02-.03.01-.02v-.01h-.01l-.01-.01h-.19l-.08.01-.07.01-.06.02-.07.02-.06.03-.05.03-.05.03-.04.04-.05.04-.04.04-.04.05-.04.04-.04.06-.04.05-.05.06.1-.5h-.79l-.52 2.96"/></g></g></svg><view id="phone" viewBox="42.14 151 40 39.97"/><svg viewBox="0 0 40 39.97" width="40" height="39.97" x="42.14" y="151" xmlns="http://www.w3.org/2000/svg"><defs><style>.hcls-1{fill:url(#hБезымянный_градиент_7)}.hcls-2{fill:#6a737b}</style><linearGradient id="hБезымянный_градиент_7" x1="3.33" y1="20.99" x2="38.66" y2="20.99" gradientUnits="userSpaceOnUse"><stop offset="0" stop-color="#add2ee"/><stop offset="1" stop-color="#fff"/></linearGradient></defs><g id="hСлой_2" data-name="Слой 2"><g id="hLayer_1" data-name="Layer 1"><path class="hcls-1" d="M8.17 3.68a1.17 1.17 0 0 1 1.66 0l5 5a1.17 1.17 0 0 1 0 1.66l-.83.83L7.35 4.5zM21.89 35.6L6.37 20.08a10.29 10.29 0 0 1-.65-13.9l6.61 6.6a5 5 0 0 0 .22 6.84l9.8 9.8a5 5 0 0 0 6.85.22l6.61 6.6a10.29 10.29 0 0 1-13.92-.64zm16.42-1.81l-.83.83L30.85 28l.83-.83a1.17 1.17 0 0 1 1.66 0l5 5a1.17 1.17 0 0 1-.03 1.62z"/><path class="hcls-2" d="M39 29.48l-5-5a3.52 3.52 0 0 0-5 0l-2.26 2.26a2.67 2.67 0 0 1-3.77 0L13.2 17a2.66 2.66 0 0 1 0-3.76l2.26-2.26a3.51 3.51 0 0 0 0-5l-5-5a3.52 3.52 0 0 0-5 0L3.71 2.82a12.68 12.68 0 0 0 0 17.92l15.52 15.51a12.68 12.68 0 0 0 17.93 0l1.84-1.8a3.52 3.52 0 0 0 0-4.97zM7.17 2.68a1.17 1.17 0 0 1 1.66 0l5 5a1.17 1.17 0 0 1 0 1.66l-.83.83L6.35 3.5zM20.89 34.6L5.37 19.08a10.29 10.29 0 0 1-.65-13.9l6.61 6.6a5 5 0 0 0 .22 6.84l9.8 9.8a5 5 0 0 0 6.85.22l6.61 6.6a10.29 10.29 0 0 1-13.92-.64zm16.42-1.81l-.83.83L29.85 27l.83-.83a1.17 1.17 0 0 1 1.66 0l5 5a1.17 1.17 0 0 1-.03 1.62z"/></g></g></svg><view id="phone-square" viewBox="180 130.86 18 18"/><svg viewBox="0 0 18 18" width="18" height="18" x="180" y="130.86" xmlns="http://www.w3.org/2000/svg"><defs><style>.icls-1{fill:url(#iБезымянный_градиент_7)}.icls-2{fill:#6a737b}</style><linearGradient id="iБезымянный_градиент_7" x1="1.75" y1="9.37" x2="17.75" y2="9.37" gradientUnits="userSpaceOnUse"><stop offset="0" stop-color="#add2ee"/><stop offset="1" stop-color="#fff"/></linearGradient></defs><g id="iСлой_2" data-name="Слой 2"><g id="iLayer_1" data-name="Layer 1"><path class="icls-1" d="M9.75 1.37a8 8 0 1 1-8 8 8 8 0 0 1 8-8m4 10.38v-.12A1.13 1.13 0 0 0 13 11l-1.05-.29a1 1 0 0 0-.9.24l-.38.38a4 4 0 0 1-2.85-2.86l.38-.38a1 1 0 0 0 .24-.9l-.29-1.05a1.12 1.12 0 0 0-.65-.69h-.12a1 1 0 0 0-.89.21l-.57.57a1.06 1.06 0 0 0-.17.39 6.72 6.72 0 0 0 6.78 6.79 1.05 1.05 0 0 0 .41-.17l.57-.57a1 1 0 0 0 .2-.92z"/><path class="icls-2" d="M9 1a8 8 0 1 1-8 8 8 8 0 0 1 8-8m0-1a9 9 0 1 0 9 9 9 9 0 0 0-9-9zm4 11.38v-.12a1.13 1.13 0 0 0-.69-.65l-1.05-.29a1 1 0 0 0-.9.24l-.38.38a4 4 0 0 1-2.91-2.85l.38-.38a1 1 0 0 0 .24-.9L7.4 5.76a1.12 1.12 0 0 0-.65-.69L6.63 5a1 1 0 0 0-.89.21l-.57.57a1.06 1.06 0 0 0-.17.43A6.72 6.72 0 0 0 11.78 13a1 1 0 0 0 .41-.16l.57-.57a1 1 0 0 0 .24-.89z"/></g></g></svg><view id="present" viewBox="198 112.86 17 16.03"/><svg viewBox="0 0 17 16.03" width="17" height="16.03" x="198" y="112.86" xmlns="http://www.w3.org/2000/svg"><defs><style>.jcls-1,.jcls-2{fill-rule:evenodd}.jcls-1{fill:url(#jБезымянный_градиент_7)}.jcls-2{fill:#6a737b}</style><linearGradient id="jБезымянный_градиент_7" x1="2" y1="9.01" x2="17" y2="9.01" gradientUnits="userSpaceOnUse"><stop offset="0" stop-color="#add2ee"/><stop offset="1" stop-color="#fff"/></linearGradient></defs><g id="jСлой_2" data-name="Слой 2"><g id="jLayer_1" data-name="Layer 1"><path class="jcls-1" d="M10 16h6v-3h-6zm0-4h6V9h-6zm-7 4h6v-3H3zm0-4h6V9H3zM2 5v3h7V5zm5.9-2.71A1 1 0 0 0 6.49 3.7l.3.3H8l.82-.82zm4.61 0a1 1 0 0 0-1.41 0L9.39 4h2.82l.31-.31a1 1 0 0 0-.01-1.4zM17 5h-7v3h7z"/><path class="jcls-2" d="M17 8h-1v8H1V8H0V3h4.48A2 2 0 0 1 7.6.58l.9.9.9-.9A2 2 0 0 1 12.52 3H17zm-8 7h6v-3H9zm0-4h6V8H9zm-7 4h6v-3H2zm0-4h6V8H2zM1 4v3h7V4zm5.9-2.71A1 1 0 0 0 5.49 2.7l.3.3H7l.82-.82zm4.61 0a1 1 0 0 0-1.41 0L8.39 3h2.82l.31-.31a1 1 0 0 0-.01-1.4zM16 4H9v3h7z"/></g></g></svg><view id="rabbit" viewBox="0 112 50 39"/><svg id="kСлой_1" viewBox="0 0 50 39" width="50" height="39" y="112" xmlns="http://www.w3.org/2000/svg"><style>.kst0{fill:url(#kSVGID_1_)}.kst1{fill:#6a737b}</style><g id="kСлой_2"><g id="kLayer_1"><linearGradient id="kSVGID_1_" gradientUnits="userSpaceOnUse" x1="4" y1="18.85" x2="50" y2="18.85" gradientTransform="matrix(1 0 0 -1 0 39)"><stop offset="0" stop-color="#add2ee"/><stop offset="1" stop-color="#fff"/></linearGradient><path class="kst0" d="M36 2.7s3.1.3 3 6c5.8.5 11 7.8 11 10s-3 5-8 5c-.4 4.8-6.6 8.9-8 9 1.4 1.4 5.4 3.7 5 4-2.8.3-8.6-2.9-10-3s-10.9.9-10.9.9 1.8 3.1.9 3.1h-6c-1.4 0-1.4-2.2-2-3-.9.1-6.6.6-7 0 .1-1.6 2.5-2.1 3-3-.2-.9-.8-6 0-9 1.6-3.8 5.8-9.7 11-10 4-.2 8.1.1 12 1 1.9 0 2.4-.3 3-1s0-3 0-3-5.9-5.3-5-6 6.4 4 7 4 1.8.3 2-1-1.4-3.1-1-4z"/><path class="kst1" d="M34.5 2.5c1.2.5 2 1.7 2 3-.1 1.9 1.4 3.5 3.3 3.7 2.8.4 4.7 2 6.1 4.9.5.9 1 1.9 1.5 2.7l.2.3c.3 1.1 0 2.2-.8 3-1.4 1.3-3.3 2-5.2 2h-.1c-1.5-.1-2.9 1.1-2.9 2.6v.3c0 1.8-.9 3.1-3 4.4-.3.2-.7.4-1.1.6l-.8.4c-1.1.6-1.5 2-.9 3.1.2.4.6.7 1 .9l.7.4 1.8.9-1.5-.3-.8-.2c-.5-.1-1.1-.3-1.6-.5-.7-.3-1.5-.5-2.3-.7-1.5-.3-3-.5-4.6-.5-1.3 0-2.6.1-3.8.2-.9.1-1.8.1-2.6.1-1.3 0-2.2 1.1-2.2 2.3 0 .2 0 .4.1.5h-2c-1.6 0-3.1 0-4.5-.1-.1-.1-.1-.2-.1-.4-.6-2.5-2.1-3.1-3.3-3.1-.5 0-.9.1-1.4.2-.6.1-1.1.2-1.7.2-.4 0-.9-.1-1.2-.3l-.1-.1h.1c.3-.1.6-.2.9-.4.9-.4 1.4-1.3 1.4-2.2-.2-3 .1-6.1.9-9 1.9-6.2 6-9.4 12.6-9.9.6 0 1.2-.1 1.8-.1 2.2 0 4.3.4 6.3 1.2.4.2.8.3 1.2.4l.3.1c.9.3 1.9-.1 2.5-.9 1.1-1.5.8-3.6-.7-4.8l-.4-.4c-.9-.8-1.7-1.6-2.5-2.5-.1-.1-.1-.2-.2-.3l3 1.8 1.6 1 .3.2c.9.9 2.4.8 3.2-.2.5-.6.7-1.5.4-2.2-.1-.4-.3-.8-.4-1.1s-.4-.8-.5-1.2M33.6 0c-.4 0-.9.1-1.2.3-.4.6-.5 1.3-.3 2 .3 1.1.7 2.2 1.2 3.2-.2-.1-.3-.3-.5-.4C30.9 4 29 2.7 27 1.7c-.3-.1-.6-.2-.9-.2-.9 0-1.7.8-1.7 1.7v.1c0 1 .3 1.9.8 2.7 1 1.2 2 2.2 3.2 3.2.6.6.9 1.1.4 1.8-.4-.1-.9-.2-1.3-.4-2.3-.9-4.7-1.4-7.2-1.4-.7 0-1.3 0-2 .1-7.3.6-12.2 4.5-14.5 11.5-.9 3.2-1.3 6.5-1 9.8-.8.2-1.5.6-2.2 1-1.1.9-.6 2.8.8 3.6.7.4 1.5.6 2.4.6.7 0 1.5-.1 2.2-.3.3-.1.6-.1.9-.1.7 0 .9.3 1.1 1.3.1 1.1 1 2 2.1 2.1 1.6.1 3.1.1 4.7.1s2.9 0 4.3-.1c1 0 1.3-.9.7-1.8-.2-.3-.5-.6-.9-1 2.2-.1 4.3-.3 6.4-.3 1.3 0 2.7.1 4 .4 1.3.3 2.5 1 3.8 1.3 1.1.4 2.3.6 3.5.7.6 0 1.3-.1 1.8-.4.6-.3 1-.8 1.1-1.3-.1-.7-.4-1.3-.9-1.7-.4-.3-.9-.6-1.4-.8l-2.7-1.3c.8-.5 1.4-.8 2-1.1 2.4-1.5 4.2-3.4 4.1-6.4 0-.8.5-.6 1-.7 2.4-.1 4.8-1 6.6-2.7 1.5-1.5 2.1-4.2 1.2-5.7-.5-1-1.1-1.9-1.6-2.9-1.6-3.3-4-5.6-7.8-6.2-1-.2-1.3-.6-1.4-1.5 0-2.6-1.9-4.8-4.4-5.3-.1-.1-.3-.1-.6-.1z"/></g></g></svg><view id="sale" viewBox="0 0 80 80"/><svg viewBox="0 0 80 80" width="80" height="80" xmlns="http://www.w3.org/2000/svg"><defs><style>.lcls-1{fill:#a3cced}.lcls-2{fill:#fff}</style></defs><g id="lСлой_2" data-name="Слой 2"><g id="lLayer_1" data-name="Layer 1"><circle class="lcls-1" cx="40" cy="40" r="40"/><path class="lcls-2" d="M39.63 74.73q-1.06 0-2.1-.09l.14-2q1 .07 2 .08zM47 74l-.4-2q1-.2 1.93-.45l.47 2q-1 .28-2 .45zm-16.68-.68q-1-.3-2-.65l.68-1.89q.93.33 1.89.61zm25.6-2.45L55 69.11q.88-.46 1.74-1l1 1.73q-.92.58-1.86 1.06zm-34.28-1.38q-.89-.56-1.75-1.17l1.16-1.64q.81.57 1.65 1.1zm42-4L62.25 64q.73-.68 1.41-1.39L65.12 64q-.73.75-1.5 1.47zm-49.24-2q-.71-.78-1.38-1.6l1.56-1.27q.63.77 1.3 1.51zm55.24-5.29l-1.74-1.09q.52-.84 1-1.72l1.77.95q-.51.92-1.06 1.82zM9 55.67q-.48-.94-.9-1.91L9.94 53q.4.91.84 1.8zm64.42-6.17l-1.93-.5q.26-1 .51-2l2 .43-.58 2.07zm-67.5-2.77q-.2-1-.34-2.08l2-.27q.13 1 .32 2zm68.82-6.59h-2V40q0-1-.06-2l2-.12q.06 1 .06 2.11zM7.37 37.45l-2-.15q.08-1.06.23-2.09l2 .27q-.15.97-.23 1.97zm64.15-6.27q-.27-1-.59-1.89l1.9-.66q.34 1 .63 2zM9.26 28.75l-1.89-.69q.36-1 .78-2l1.84.81q-.39.94-.73 1.88zM68 23q-.52-.85-1.08-1.67l1.65-1.15q.6.87 1.15 1.77zm-54.57-2.12L11.8 19.7q.62-.85 1.28-1.67l1.56 1.27q-.64.78-1.21 1.58zm48.91-4.79q-.73-.68-1.49-1.31l1.28-1.55q.81.67 1.58 1.39zm-42.76-1.66l-1.25-1.57q.82-.66 1.69-1.27l1.16 1.64q-.83.58-1.6 1.2zm35.5-3.48q-.88-.46-1.79-.86l.82-1.84q1 .43 1.9.91zM27.23 9.86L26.44 8q1-.41 2-.77l.67 1.89q-.97.35-1.88.74zM46.69 8q-1-.2-2-.34l.29-2q1 .15 2.08.37zm-10.86-.46l-.25-2q1-.13 2.1-.2l.13 2q-1 .07-1.98.2zm31 28.14A2.22 2.22 0 0 0 66 35a4.26 4.26 0 0 0-1.16-.41 6.43 6.43 0 0 0-1.32-.14 7.7 7.7 0 0 0-3.49.88 13.64 13.64 0 0 0-3.2 2.24c-.2.19-.4.39-.59.58-1.83 1.51-6.36 7.73-6.6 8.07-.16.18-.32.35-.51.53a6.41 6.41 0 0 1-1 .78 2.07 2.07 0 0 1-1.08.33.81.81 0 0 1-.68-.26.82.82 0 0 1-.17-.62 2.84 2.84 0 0 1 .25-.9l.42-.93 9.89-20.37h-2.31l-4 8.26s-9.45 12.44-9.6 12.6a6.2 6.2 0 0 1-.72.88 5.05 5.05 0 0 1-1 .79 2.3 2.3 0 0 1-1.23.35q-.83 0-.76-.79a5 5 0 0 1 .34-1.31q.29-.73.66-1.52l4.52-9.21h-2.32l-.71 1.49h-.07a1.47 1.47 0 0 0-.56-1.37 2.57 2.57 0 0 0-1.65-.52 6.37 6.37 0 0 0-2 .4 13.64 13.64 0 0 0-2.37 1.1 20.71 20.71 0 0 0-2.42 1.64 15.16 15.16 0 0 0-2.16 2.05 12.82 12.82 0 0 0-1.61 2.33c-.06.11-.1.21-.15.32l-4.41 2.86a3.38 3.38 0 0 0 .26-1 3.46 3.46 0 0 0-.05-1 2.3 2.3 0 0 0-.46-1l-1.74-2.34a11 11 0 0 1-.81-1.26 2 2 0 0 1-.22-1.14 2.59 2.59 0 0 1 .27-.91 2.65 2.65 0 0 1 .65-.82 3.11 3.11 0 0 1 1-.58 4.22 4.22 0 0 1 1.4-.21q1.13 0 1.06.79a.72.72 0 0 1-.26.5.89.89 0 0 0-.28.62.72.72 0 0 0 .28.7 1.29 1.29 0 0 0 .79.24 1.3 1.3 0 0 0 1.49-1.28 1.51 1.51 0 0 0-.74-1.44 3.76 3.76 0 0 0-2.2-.56 6.46 6.46 0 0 0-3.93 1.32 5.38 5.38 0 0 0-1.23 1.32 3.22 3.22 0 0 0-.51 1.43 2.24 2.24 0 0 0 .28 1.41q.36.59.8 1.2l1.47 2a4.43 4.43 0 0 1 .61 1.09 2.57 2.57 0 0 1 .11 1.1 2.05 2.05 0 0 1-.32.85 3 3 0 0 1-.76.82 4.41 4.41 0 0 1-2.67.85 2.59 2.59 0 0 1-1.32-.29 1 1 0 0 1-.42-1 1.56 1.56 0 0 1 .23-.68 1.57 1.57 0 0 0 .23-.68.53.53 0 0 0-.2-.47.8.8 0 0 0-.53-.2 2.18 2.18 0 0 0-1.25.35 1.35 1.35 0 0 0-.58 1 1.53 1.53 0 0 0 .24 1 2.26 2.26 0 0 0 .81.73 4.5 4.5 0 0 0 1.21.44 6.72 6.72 0 0 0 1.45.15 8 8 0 0 0 3.78-1 5.61 5.61 0 0 0 1.31-1.06l4.8-3.12a6 6 0 0 0-.3 1.35 4.62 4.62 0 0 0 .12 1.73A2.75 2.75 0 0 0 27.85 48a3.85 3.85 0 0 0 1.33.23 5.77 5.77 0 0 0 2-.35A8.52 8.52 0 0 0 33 47a10.93 10.93 0 0 0 1.46-1.16q.66-.62 1.18-1.14h.07a5.79 5.79 0 0 0-.36 1 5.08 5.08 0 0 0-.17.75q-.18 1.82 2 1.82a3.84 3.84 0 0 0 1.67-.35 6.49 6.49 0 0 0 1.31-.82 5.53 5.53 0 0 0 1-1l.27-.38 8-10.46-4.43 8.9q-.25.52-.51 1.14a4 4 0 0 0-.31 1.14 1.37 1.37 0 0 0 .52 1.38 3 3 0 0 0 1.71.41 4.09 4.09 0 0 0 1.77-.36 5.31 5.31 0 0 0 1.33-.87 5.5 5.5 0 0 0 .88-1l.4-.61c.83-1.15 2.28-3.14 3.57-4.71a7.46 7.46 0 0 0-1 3 4.53 4.53 0 0 0 .13 1.57 3.72 3.72 0 0 0 .76 1.48 4.06 4.06 0 0 0 1.5 1.09 5.77 5.77 0 0 0 2.38.43 6.46 6.46 0 0 0 2.49-.44 8.44 8.44 0 0 0 1.81-1 6.62 6.62 0 0 0 1.21-1.13 9.54 9.54 0 0 1 .67-.77l-.38-.21q-.3.3-.76.84a8.25 8.25 0 0 1-1.13 1 7.33 7.33 0 0 1-1.52.9 4.66 4.66 0 0 1-1.92.38 3.2 3.2 0 0 1-2.33-.82 2.81 2.81 0 0 1-.7-2.45 8.35 8.35 0 0 1 .44-2q.34-1 .8-1.93.39.06.92.09t1.1 0q.33 0 1.06-.08t1.61-.24a15.36 15.36 0 0 0 1.84-.39 10.12 10.12 0 0 0 1.75-.75 4.83 4.83 0 0 0 1.35-1.06 2.51 2.51 0 0 0 .62-1.44 1.51 1.51 0 0 0-.23-1.07zm-31.52 8.79A14.91 14.91 0 0 1 33.73 46a10.77 10.77 0 0 1-2 1.31 4.38 4.38 0 0 1-2 .55 1.41 1.41 0 0 1-1.33-.61 2.58 2.58 0 0 1-.27-1.58 8.24 8.24 0 0 1 .49-2 16.28 16.28 0 0 1 1.07-2.33A20.41 20.41 0 0 1 31.27 39a14.81 14.81 0 0 1 1.88-2.08 9.69 9.69 0 0 1 2.11-1.47 4.83 4.83 0 0 1 2.2-.56 1.93 1.93 0 0 1 .95.2 1.6 1.6 0 0 1 .54.47 1.42 1.42 0 0 1 .24.59 2.26 2.26 0 0 1 0 .59 2.77 2.77 0 0 1-.19.71q-.16.41-.65 1.38l-2.2 4.47a6.09 6.09 0 0 1-.84 1.17zm29.09-6.63a5.3 5.3 0 0 1-1.4 1.28 8.13 8.13 0 0 1-2 .88 7.86 7.86 0 0 1-2.3.33 10.63 10.63 0 0 1-1.7-.12 12.45 12.45 0 0 1 2.53-3.45 8.72 8.72 0 0 1 1.85-1.35 4.21 4.21 0 0 1 2-.55 1.62 1.62 0 0 1 1.29.43 1.34 1.34 0 0 1 .3 1 3 3 0 0 1-.56 1.55z"/><path class="lcls-2" d="M58.09 48.49a6 6 0 0 1-2.48-.49A4.32 4.32 0 0 1 54 46.88a4 4 0 0 1-.81-1.57 4.8 4.8 0 0 1-.14-1.65 6.41 6.41 0 0 1 .26-1.27c-.93 1.21-1.81 2.42-2.35 3.16l-.39.6a5.8 5.8 0 0 1-.92 1.05 5.58 5.58 0 0 1-1.38.91 4.35 4.35 0 0 1-1.88.39 3.3 3.3 0 0 1-1.82-.5 1.61 1.61 0 0 1-.63-1.62 4.25 4.25 0 0 1 .33-1.21q.26-.63.51-1.15L48 37.38l-6.47 8.47-.27.38a5.81 5.81 0 0 1-1 1 6.77 6.77 0 0 1-1.36.85 4.11 4.11 0 0 1-1.78.37 2.45 2.45 0 0 1-1.88-.63 1.84 1.84 0 0 1-.4-1.47 5.31 5.31 0 0 1 .18-.79l-.48.45a11.25 11.25 0 0 1-1.5 1.18 8.8 8.8 0 0 1-1.79.91 6.05 6.05 0 0 1-2.12.37 4.12 4.12 0 0 1-1.41-.24 3 3 0 0 1-1.91-2.07 4.89 4.89 0 0 1-.13-1.83 5.83 5.83 0 0 1 .12-.75l-4.25 2.75a5.47 5.47 0 0 1-1.32 1.07 7.86 7.86 0 0 1-2 .8 7.29 7.29 0 0 1-3.44.11 4.76 4.76 0 0 1-1.28-.47 2.52 2.52 0 0 1-.9-.81 1.79 1.79 0 0 1-.28-1.18 1.6 1.6 0 0 1 .69-1.23 2.43 2.43 0 0 1 1.39-.39 1 1 0 0 1 .69.26.78.78 0 0 1 .29.69 1.83 1.83 0 0 1-.27.79 1.3 1.3 0 0 0-.2.58c0 .51.15.69.3.78a2.37 2.37 0 0 0 1.2.25 4.16 4.16 0 0 0 2.52-.8 2.73 2.73 0 0 0 .7-.75 1.82 1.82 0 0 0 .28-.74 2.32 2.32 0 0 0-.1-1 4.21 4.21 0 0 0-.58-1l-1.47-2c-.3-.41-.57-.82-.81-1.22a2.49 2.49 0 0 1-.32-1.57 3.48 3.48 0 0 1 .58-1.54 5.64 5.64 0 0 1 1.28-1.38 6.71 6.71 0 0 1 4.08-1.38 4 4 0 0 1 2.34.61 1.75 1.75 0 0 1 .82 1.67 1.73 1.73 0 0 1-2.68 1.21 1 1 0 0 1-.38-.92 1.13 1.13 0 0 1 .37-.79.47.47 0 0 0 .18-.33.4.4 0 0 0-.08-.32 1 1 0 0 0-.73-.19 4 4 0 0 0-1.32.2 2.87 2.87 0 0 0-.94.53 2.42 2.42 0 0 0-.59.74 2.36 2.36 0 0 0-.25.83 1.71 1.71 0 0 0 .2 1 10.82 10.82 0 0 0 .79 1.23L22.13 42a2.55 2.55 0 0 1 .5 1.06 3.72 3.72 0 0 1 0 1.5l3.78-2.47.11-.23a13.11 13.11 0 0 1 1.64-2.37 15.46 15.46 0 0 1 2.2-2.09 21 21 0 0 1 2.45-1.66 13.93 13.93 0 0 1 2.42-1.11c1.75-.6 3-.53 3.91.16a1.73 1.73 0 0 1 .58.78l.46-1h2.9l-4.7 9.58c-.24.51-.46 1-.66 1.5a4.72 4.72 0 0 0-.33 1.24.51.51 0 0 0 .08.39.61.61 0 0 0 .43.13 2 2 0 0 0 1.1-.31 4.81 4.81 0 0 0 .94-.75c.27-.28 10.3-13.48 10.3-13.48l4-8.35h2.89L47.11 45.25l-.42.92a2.6 2.6 0 0 0-.23.82.51.51 0 0 0 .6.61 1.83 1.83 0 0 0 1-.3 6.16 6.16 0 0 0 1-.75c.18-.17.34-.34.49-.51s4.72-6.52 6.63-8.1c.17-.18.37-.38.57-.57A14 14 0 0 1 60 35.09a7.5 7.5 0 0 1 5-.77 4.53 4.53 0 0 1 1.23.44 2.48 2.48 0 0 1 .89.78 1.76 1.76 0 0 1 .28 1.2 2.77 2.77 0 0 1-.68 1.59 5.1 5.1 0 0 1-1.42 1.12 10.39 10.39 0 0 1-1.8.76 15.7 15.7 0 0 1-1.86.48c-.59.11-1.14.2-1.63.25s-.85.08-1.08.08h-1.11l-.82-.11c-.27.58-.51 1.16-.71 1.74a8.12 8.12 0 0 0-.43 2 2.59 2.59 0 0 0 .62 2.24 3 3 0 0 0 2.12.74 4.43 4.43 0 0 0 1.82-.36 7.08 7.08 0 0 0 1.47-.87 8 8 0 0 0 1.1-1q.47-.54.77-.85l.13-.14.84.47-.24.23a9.44 9.44 0 0 0-.65.75A6.88 6.88 0 0 1 62.55 47a8.71 8.71 0 0 1-1.87 1 6.74 6.74 0 0 1-2.59.49zm-8.91-13.4l.42.26-4.36 8.93q-.25.51-.5 1.13a3.72 3.72 0 0 0-.29 1.07 1.13 1.13 0 0 0 .41 1.15 2.91 2.91 0 0 0 1.64.37.87.87 0 0 1-.32-.25 1.07 1.07 0 0 1-.23-.8 3.12 3.12 0 0 1 .27-1l.42-.93 9.72-20H54.6l-3.93 8.11zm-13.53 9.37h.41l-.18.36a5.59 5.59 0 0 0-.34.92 4.65 4.65 0 0 0-.16.7 1.35 1.35 0 0 0 .27 1.09 2 2 0 0 0 1.51.46 4.06 4.06 0 0 0 .8-.08 1.07 1.07 0 0 1-.84-.29 1 1 0 0 1-.21-.78 5.22 5.22 0 0 1 .36-1.38c.2-.5.42-1 .67-1.54l4.34-8.86H40.5l-.71 1.49h-.3v.17a3 3 0 0 1-.2.78c-.11.28-.32.74-.66 1.41l-2.19 4.47a5.55 5.55 0 0 1-.79 1.08zm-8.92-2l-.22.64a5.74 5.74 0 0 0-.29 1.29 4.39 4.39 0 0 0 .12 1.61 2.5 2.5 0 0 0 1.6 1.73A3.6 3.6 0 0 0 29 48a1.39 1.39 0 0 1-.78-.62 2.83 2.83 0 0 1-.3-1.73 8.54 8.54 0 0 1 .5-2 16.59 16.59 0 0 1 1.09-2.36 20.77 20.77 0 0 1 1.56-2.4A15.13 15.13 0 0 1 33 36.71a10 10 0 0 1 2.16-1.51l.34-.2h-.1a13.45 13.45 0 0 0-2.33 1.08 20.57 20.57 0 0 0-2.4 1.62 15 15 0 0 0-2.13 2A12.6 12.6 0 0 0 27 42.06l-.1.21-.08.16zm27.57-1.84l.28.19a7.23 7.23 0 0 0-1 2.89 4.29 4.29 0 0 0 .13 1.48 3.49 3.49 0 0 0 .71 1.38 3.83 3.83 0 0 0 1.41 1 4.92 4.92 0 0 0 1.66.38 3.11 3.11 0 0 1-1.38-.75 3.06 3.06 0 0 1-.78-2.65 8.63 8.63 0 0 1 .46-2.08c.23-.65.5-1.3.81-2l.08-.17.12-.26a12.68 12.68 0 0 1 2.59-3.52 9 9 0 0 1 1.9-1.39 5 5 0 0 1 .69-.31 8.28 8.28 0 0 0-1.8.67A13.46 13.46 0 0 0 57 37.73c-.2.19-.39.38-.58.57a20.26 20.26 0 0 0-2.12 2.32zm-39.8 4.13a1.94 1.94 0 0 0-1.11.31 1.1 1.1 0 0 0-.47.87 1.28 1.28 0 0 0 .2.86 2 2 0 0 0 .73.65 4.28 4.28 0 0 0 1.14.42l.38.07a1.93 1.93 0 0 1-.3-.14 1.2 1.2 0 0 1-.54-1.26 1.81 1.81 0 0 1 .27-.79 1.31 1.31 0 0 0 .2-.58.28.28 0 0 0-.12-.26.55.55 0 0 0-.38-.15zm5.9-9.64a6 6 0 0 0-1.5.84 5.15 5.15 0 0 0-1.17 1.26 3 3 0 0 0-.5 1.32 2 2 0 0 0 .25 1.26c.23.39.5.79.79 1.18l1.47 2a4.7 4.7 0 0 1 .65 1.16 2.83 2.83 0 0 1 .13 1.2 2.31 2.31 0 0 1-.35 1 3.22 3.22 0 0 1-.83.89 4.2 4.2 0 0 1-.66.4A7.37 7.37 0 0 0 20 47a5.33 5.33 0 0 0 1.25-1l.35-.23.4-.77a3.15 3.15 0 0 0 .24-.94 3.21 3.21 0 0 0 0-.94 2.06 2.06 0 0 0-.41-.85L20 39.93a11.18 11.18 0 0 1-.83-1.3 2.23 2.23 0 0 1-.25-1.28 2.86 2.86 0 0 1 .3-1 2.92 2.92 0 0 1 .7-.9 3.06 3.06 0 0 1 .48-.34zm17.07 0a4.6 4.6 0 0 0-2.09.54 9.48 9.48 0 0 0-2.05 1.44 14.66 14.66 0 0 0-1.85 2 20.31 20.31 0 0 0-1.53 2.34 16.1 16.1 0 0 0-1.06 2.29 8 8 0 0 0-.48 1.91 2.36 2.36 0 0 0 .23 1.43 1.17 1.17 0 0 0 1.11.48 4.15 4.15 0 0 0 1.9-.52 10.61 10.61 0 0 0 1.91-1.28 14.8 14.8 0 0 0 1.55-1.49 5.92 5.92 0 0 0 .89-1.08l2.2-4.47c.33-.64.54-1.1.64-1.36a2.54 2.54 0 0 0 .17-.65 2 2 0 0 0 0-.53 1.17 1.17 0 0 0-.2-.49 1.35 1.35 0 0 0-.46-.4 1.69 1.69 0 0 0-.88-.16zM64.61 38a5.57 5.57 0 0 1-1.49 1.34 8.43 8.43 0 0 1-2 .91l-.18.05.55-.1a15.19 15.19 0 0 0 1.8-.46A9.91 9.91 0 0 0 65 39a4.62 4.62 0 0 0 1.28-1 2.25 2.25 0 0 0 .56-1.3 1.26 1.26 0 0 0-.19-.87 2 2 0 0 0-.71-.62 4 4 0 0 0-1.09-.39l-.49-.08a1.32 1.32 0 0 1 .6.39 1.59 1.59 0 0 1 .36 1.22 3.23 3.23 0 0 1-.71 1.65zm-7.2 2a11.22 11.22 0 0 0 1.31.07 7.64 7.64 0 0 0 2.23-.32 7.93 7.93 0 0 0 1.91-.85 5.07 5.07 0 0 0 1.36-1.22 2.74 2.74 0 0 0 .58-1.39 1.09 1.09 0 0 0-.24-.85 1.41 1.41 0 0 0-1.1-.34 4 4 0 0 0-1.92.52 8.51 8.51 0 0 0-1.79 1.31 11.63 11.63 0 0 0-1.47 1.7 12.53 12.53 0 0 0-.87 1.37zM23.2 34.7a1 1 0 0 1 .4.26.88.88 0 0 1 .21.71 1 1 0 0 1-.35.67.65.65 0 0 0-.19.46.47.47 0 0 0 .18.47 1 1 0 0 0 .64.19c.79 0 1.17-.32 1.24-1a1.26 1.26 0 0 0-.61-1.22 3.11 3.11 0 0 0-1.53-.53z"/></g></g></svg><view id="tape" viewBox="130 0 50 45"/><svg viewBox="0 0 50 45" width="50" height="45" x="130" xmlns="http://www.w3.org/2000/svg"><defs><style>.mcls-1{fill:url(#mБезымянный_градиент_7)}.mcls-2{fill:#6a737b}</style><linearGradient id="mБезымянный_градиент_7" x1="3.95" y1="29.37" x2="49.36" y2="29.37" gradientUnits="userSpaceOnUse"><stop offset="0" stop-color="#add2ee"/><stop offset="1" stop-color="#fff"/></linearGradient></defs><g id="mСлой_2" data-name="Слой 2"><g id="mLayer_1" data-name="Layer 1"><path class="mcls-1" d="M49.36 33.9c0 2.37-1.72 4.58-4.54 6.33v-3.7a1.14 1.14 0 0 0-2.27 0v4.88A27.19 27.19 0 0 1 38 43v-4.22a1.14 1.14 0 0 0-2.27 0v4.68a36.25 36.25 0 0 1-4.53.54v-9a1.14 1.14 0 0 0-2.27 0v9c-1.55 0-3.07-.09-4.54-.25v-4.61a1.14 1.14 0 0 0-2.27 0v4.32a41.12 41.12 0 0 1-4.54-1v-4.71a1.14 1.14 0 0 0-2.27 0v4.05a28.77 28.77 0 0 1-4.54-2v-4.93a1.14 1.14 0 0 0-2.27 0v3.49c-2.85-2.09-4.54-4.6-4.54-7.27V14.72c4.21 5.38 13.86 9 25.36 9 8.91 0 16.46-2.76 20.06-6.85v17z"/><path class="mcls-2" d="M49.95 9.78C49.63 4.27 41.8 0 31.86 0c-8.24 0-14.7 3.66-14.7 8.32 0 3.86 5.27 6.89 12 6.89 5.5 0 9.82-2.52 9.82-5.73 0-2.74-3.47-4.81-8.08-4.81-3.81 0-6.69 1.75-6.69 4.07 0 2 2.4 3.49 5.58 3.49 2.67 0 4.69-1.3 4.69-3a1.14 1.14 0 0 0-1.14-1.14 1.12 1.12 0 0 0-1.14 1.1 3 3 0 0 1-2.42.79c-2.15 0-3.31-.88-3.31-1.24 0-.73 1.76-1.82 4.42-1.82 3.32 0 5.81 1.35 5.81 2.56 0 1.65-3.1 3.48-7.55 3.48-5.72 0-9.72-2.44-9.72-4.63 0-3.29 5.69-6.07 12.43-6.07 8.58 0 15.82 3.61 15.82 7.87 0 5.49-9.18 10.12-20.06 10.12-13.74 0-25.36-5.92-25.36-12.94a1.14 1.14 0 0 0-2.26 0v22.5C0 38.33 12.13 45 27.63 45 40.15 45 50 39.56 50 32.62V10.44a1.13 1.13 0 0 0 0-.32 1.19 1.19 0 0 0-.05-.34zm-2.27 22.84C47.68 35 46 37.2 43.14 39v-3.74a1.14 1.14 0 0 0-2.27 0v4.88a27.13 27.13 0 0 1-4.54 1.56v-4.19a1.14 1.14 0 0 0-2.27 0v4.68a36.2 36.2 0 0 1-4.54.52v-9a1.14 1.14 0 0 0-2.27 0v9c-1.55 0-3.07-.09-4.54-.25v-4.59a1.14 1.14 0 0 0-2.27 0v4.32a41.3 41.3 0 0 1-4.54-1v-4.72a1.14 1.14 0 0 0-2.27 0v4.05a28.78 28.78 0 0 1-4.54-2v-4.93a1.14 1.14 0 0 0-2.27 0v3.49C4 35 2.27 32.49 2.27 29.81V13.45c4.21 5.38 13.86 9 25.36 9 8.91 0 16.46-2.76 20.06-6.85v17z"/></g></g></svg><view id="user" viewBox="180 112.86 18 18"/><svg viewBox="0 0 18 18" width="18" height="18" x="180" y="112.86" xmlns="http://www.w3.org/2000/svg"><defs><style>.ncls-1,.ncls-2{fill-rule:evenodd}.ncls-1{fill:url(#nБезымянный_градиент_7)}.ncls-2{fill:#6a737b}</style><linearGradient id="nБезымянный_градиент_7" x1="2" y1="10" x2="18" y2="10" gradientUnits="userSpaceOnUse"><stop offset="0" stop-color="#add2ee"/><stop offset="1" stop-color="#fff"/></linearGradient></defs><g id="nСлой_2" data-name="Слой 2"><g id="nLayer_1" data-name="Layer 1"><path class="ncls-1" d="M10 18a8 8 0 0 0 5.94-2.66 7 7 0 0 0-11.89 0A8 8 0 0 0 10 18zm3-10a3 3 0 1 0-3 3 3 3 0 0 0 3-3zm-3-6a8 8 0 0 0-6.6 12.52 8 8 0 0 1 4.38-3.19 4 4 0 1 1 4.44 0 8 8 0 0 1 4.38 3.19A8 8 0 0 0 10 2z"/><path class="ncls-2" d="M9 18a9 9 0 1 1 9-9 9 9 0 0 1-9 9zm0-1a8 8 0 0 0 5.94-2.66 7 7 0 0 0-11.89 0A8 8 0 0 0 9 17zm3-10a3 3 0 1 0-3 3 3 3 0 0 0 3-3zM9 1a8 8 0 0 0-6.6 12.52 8 8 0 0 1 4.38-3.19 4 4 0 1 1 4.44 0 8 8 0 0 1 4.38 3.19A8 8 0 0 0 9 1z"/></g></g></svg><view id="visa" viewBox="0 80 50 32"/><svg viewBox="0 0 50 32" width="50" height="32" y="80" xmlns="http://www.w3.org/2000/svg"><defs><style>.ocls-1{fill:#3a58a8}.ocls-1,.ocls-2,.ocls-3{fill-rule:evenodd}.ocls-2{fill:#fff}.ocls-3{fill:#fec434}</style></defs><g id="oСлой_2" data-name="Слой 2"><g id="oСлой_1-2" data-name="Слой 1"><path class="ocls-1" d="M0 0h50v32H0z"/><path class="ocls-2" d="M21.25 11.17l-1.52 9.69h2.43l1.52-9.69zm7.32 3.89c-.85-.44-1.37-.74-1.37-1.2s.44-.83 1.4-.83a4 4 0 0 1 1.81.37l.22.1.37-2.09a5.82 5.82 0 0 0-2.22-.41c-2.4 0-4.08 1.32-4.09 3.21 0 1.39 1.21 2.17 2.13 2.63s1.26.78 1.26 1.21c0 .65-.76.95-1.46.95a4.7 4.7 0 0 1-2.28-.52l-.34-.17-.34 2.18a7.17 7.17 0 0 0 2.71.52c2.55 0 4.2-1.3 4.22-3.31.02-1.11-.59-1.95-2.02-2.64zm8.61-3.89h-1.89A1.19 1.19 0 0 0 34 12l-3.6 8.89H33l.51-1.45h3.11l.29 1.45h2.25zm-3 6.26l1-2.71s.2-.57.32-.93l.17.84s.46 2.32.56 2.8zM17.7 11.17l-2.38 6.61-.26-1.34a7.36 7.36 0 0 0-3.35-4.06l2.18 8.47h2.57l3.81-9.68z"/><path class="ocls-2" d="M21.25 11.17l-1.52 9.69h2.43l1.52-9.69zm7.32 3.89c-.85-.44-1.37-.74-1.37-1.2s.44-.83 1.4-.83a4 4 0 0 1 1.81.37l.22.1.37-2.09a5.82 5.82 0 0 0-2.22-.41c-2.4 0-4.08 1.32-4.09 3.21 0 1.39 1.21 2.17 2.13 2.63s1.26.78 1.26 1.21c0 .65-.76.95-1.46.95a4.7 4.7 0 0 1-2.28-.52l-.34-.17-.34 2.18a7.17 7.17 0 0 0 2.71.52c2.55 0 4.2-1.3 4.22-3.31.02-1.11-.59-1.95-2.02-2.64zm8.61-3.89h-1.89A1.19 1.19 0 0 0 34 12l-3.6 8.89H33l.51-1.45h3.11l.29 1.45h2.25zm-3 6.26l1-2.71s.2-.57.32-.93l.17.84s.46 2.32.56 2.8zM17.7 11.17l-2.38 6.61-.26-1.34a7.36 7.36 0 0 0-3.35-4.06l2.18 8.47h2.57l3.81-9.68z"/><path class="ocls-3" d="M13.12 11.16h-3.9v.2a8.2 8.2 0 0 1 5.89 5.07L14.22 12a1 1 0 0 0-1.1-.81z"/></g></g></svg><view id="wash" viewBox="0 151 42.14 42.86"/><svg viewBox="0 0 42.14 42.86" width="42.14" height="42.86" y="151" xmlns="http://www.w3.org/2000/svg"><defs><style>.pcls-1{fill:url(#pБезымянный_градиент_7)}.pcls-2{fill:#6a737b}</style><linearGradient id="pБезымянный_градиент_7" x1="4.62" y1="22.43" x2="39.52" y2="22.43" gradientUnits="userSpaceOnUse"><stop offset="0" stop-color="#add2ee"/><stop offset="1" stop-color="#fff"/></linearGradient></defs><g id="pСлой_2" data-name="Слой 2"><g id="pLayer_1" data-name="Layer 1"><path class="pcls-1" d="M11.26 6.26a9.21 9.21 0 0 1 6.58-2.75h11.81a1.26 1.26 0 0 1 1.23 1.28A1.24 1.24 0 0 1 29.65 6h-4.22a1.26 1.26 0 0 0-.87 2.14l9.75 9.93a1.27 1.27 0 0 1 0 1.78 1.22 1.22 0 0 1-1.75 0l-5.24-5.33a1.22 1.22 0 0 0-1.75 0 1.27 1.27 0 0 0 0 1.78l7 7.1a1.27 1.27 0 0 1 0 1.78 1.22 1.22 0 0 1-1.75 0l-7-7.1a1.22 1.22 0 0 0-1.75 0 1.27 1.27 0 0 0 0 1.78l5.24 5.33a1.27 1.27 0 0 1 0 1.77 1.22 1.22 0 0 1-1.75 0l-5.24-5.33a1.22 1.22 0 0 0-1.75 0 1.27 1.27 0 0 0 0 1.78L22.09 27a1.27 1.27 0 0 1 0 1.77 1.22 1.22 0 0 1-1.75 0l-9.09-9.24a9.5 9.5 0 0 1 .01-13.27zm25.15 32a3.72 3.72 0 0 1-3.64 3.08h-21.4a3.72 3.72 0 0 1-3.64-3.08l-3.11-19a4.71 4.71 0 0 1 2.79-.85 11.84 11.84 0 0 0 2.1 2.9l9.09 9.24a3.66 3.66 0 0 0 5.24 0 3.77 3.77 0 0 0 .78-1.17 3.66 3.66 0 0 0 4.46-.61 3.77 3.77 0 0 0 .78-1.17 3.66 3.66 0 0 0 4.45-.6 3.82 3.82 0 0 0 .6-4.53 3.7 3.7 0 0 0 1.15-.8 3.79 3.79 0 0 0 1-3.26 4.73 4.73 0 0 1 2.43.77z"/><path class="pcls-2" d="M41.11 10a1.24 1.24 0 0 0-1.42 1L39 15.55a7 7 0 0 0-4.27-.55l-7.32-7.47h1.24a3.73 3.73 0 0 0 3.7-3.75A3.75 3.75 0 0 0 28.65 0h-11.8a11.66 11.66 0 0 0-8.33 3.48 12 12 0 0 0-3 11.44 7.11 7.11 0 0 0-2.29.68L2.45 11A1.24 1.24 0 0 0 1 10a1.25 1.25 0 0 0-1 1.44l4.3 26.24a6.2 6.2 0 0 0 6.07 5.15h21.4a6.2 6.2 0 0 0 6.07-5.15l4.28-26.23A1.25 1.25 0 0 0 41.11 10zM10.26 5.26a9.21 9.21 0 0 1 6.58-2.76h11.81a1.26 1.26 0 0 1 1.23 1.28A1.24 1.24 0 0 1 28.65 5h-4.21a1.26 1.26 0 0 0-.87 2.14l9.75 9.93a1.27 1.27 0 0 1 0 1.78 1.22 1.22 0 0 1-1.75 0l-5.24-5.33a1.22 1.22 0 0 0-1.75 0 1.27 1.27 0 0 0 0 1.78l7 7.1a1.27 1.27 0 0 1 0 1.78 1.22 1.22 0 0 1-1.75 0l-7-7.1a1.22 1.22 0 0 0-1.75 0 1.27 1.27 0 0 0 0 1.78l5.24 5.33a1.27 1.27 0 0 1 0 1.77 1.22 1.22 0 0 1-1.75 0l-5.24-5.33a1.22 1.22 0 0 0-1.75 0 1.27 1.27 0 0 0 0 1.78L21.1 26a1.27 1.27 0 0 1 0 1.77 1.22 1.22 0 0 1-1.75 0l-9.09-9.24a9.5 9.5 0 0 1 0-13.27zm25.15 32a3.72 3.72 0 0 1-3.64 3.08H10.38a3.72 3.72 0 0 1-3.64-3.08l-3.11-19a4.71 4.71 0 0 1 2.79-.85 11.84 11.84 0 0 0 2.1 2.9l9.09 9.24a3.66 3.66 0 0 0 5.24 0 3.76 3.76 0 0 0 .78-1.17 3.67 3.67 0 0 0 4.46-.61 3.77 3.77 0 0 0 .78-1.17 3.66 3.66 0 0 0 4.45-.6 3.82 3.82 0 0 0 .6-4.53 3.7 3.7 0 0 0 1.15-.8 3.79 3.79 0 0 0 1-3.26 4.73 4.73 0 0 1 2.43.77z"/></g></g></svg><view id="washer" viewBox="180 0 35.71 42.86"/><svg viewBox="0 0 35.71 42.86" width="35.71" height="42.86" x="180" xmlns="http://www.w3.org/2000/svg"><defs><style>.qcls-1{fill-rule:evenodd;fill:url(#qБезымянный_градиент_7)}.qcls-2{fill:#6a737b}</style><linearGradient id="qБезымянный_градиент_7" x1="3.31" y1="23.24" x2="34.74" y2="23.24" gradientUnits="userSpaceOnUse"><stop offset="0" stop-color="#add2ee"/><stop offset="1" stop-color="#fff"/></linearGradient></defs><g id="qСлой_2" data-name="Слой 2"><g id="qLayer_1" data-name="Layer 1"><path class="qcls-1" d="M33.31 42.53H4.74a1.29 1.29 0 0 1-1.43-1.43V12.53h31.43V41.1a1.28 1.28 0 0 1-1.43 1.43zM19 16.09A10.71 10.71 0 1 0 29.74 26.8 10.72 10.72 0 0 0 19 16.09zm0 19.3a8.57 8.57 0 1 1 8.58-8.57A8.58 8.58 0 0 1 19 35.38zM3.31 5.38A1.28 1.28 0 0 1 4.74 4h28.57a1.26 1.26 0 0 1 1.43 1.43v5H3.31zm28.22 2.86a1.07 1.07 0 1 0-1.06-1.07 1.07 1.07 0 0 0 1.06 1.07zm-5 0a1.07 1.07 0 1 0-1.07-1.07 1.07 1.07 0 0 0 1.07 1.07z"/><path class="qcls-2" d="M32.14 0H3.57A3.44 3.44 0 0 0 0 3.57v35.72a3.44 3.44 0 0 0 3.57 3.57h28.57a3.44 3.44 0 0 0 3.57-3.57V3.57A3.44 3.44 0 0 0 32.14 0zm1.43 39.29a1.28 1.28 0 0 1-1.43 1.43H3.57a1.29 1.29 0 0 1-1.43-1.43V10.71h31.43zm0-30.71H2.14v-5a1.28 1.28 0 0 1 1.43-1.44h28.57a1.26 1.26 0 0 1 1.43 1.43zm-3.21-4.29a1.07 1.07 0 1 0 1.06 1.07 1.07 1.07 0 0 0-1.06-1.07zm-5 0a1.07 1.07 0 1 0 1.07 1.07 1.07 1.07 0 0 0-1.07-1.07zm-7.5 31.42A10.71 10.71 0 1 0 7.15 25a10.72 10.72 0 0 0 10.71 10.71zm0-19.27A8.57 8.57 0 1 1 9.29 25a8.58 8.58 0 0 1 8.57-8.57z"/></g></g></svg></svg>